<svg width="32" height="32" viewBox="0 0 32 32" fill="none" xmlns="http://www.w3.org/2000/svg">
<g clip-path="url(#clip0_26667_50569)">
<path d="M14.8106 7.43459C15.1586 8.03592 15.3333 8.33592 15.3333 8.66659C15.3333 8.99725 15.1599 9.29725 14.8093 9.89859L13.1453 12.7679C12.7959 13.3693 12.6226 13.6693 12.3346 13.8346C12.0466 13.9999 11.6986 13.9999 11.0013 13.9999H7.66792C6.97059 13.9999 6.62259 13.9999 6.33459 13.8346C6.04659 13.6706 5.87325 13.3693 5.52392 12.7679L3.85725 9.89859C3.50925 9.29725 3.33325 8.99725 3.33325 8.66659C3.33325 8.33592 3.50659 8.03592 3.85725 7.43459L5.52259 4.56525C5.87192 3.96392 6.04525 3.66392 6.33325 3.49859C6.62125 3.33325 6.96925 3.33325 7.66659 3.33325H10.9999C11.6973 3.33325 12.0453 3.33325 12.3333 3.49859C12.6213 3.66392 12.7946 3.96392 13.1439 4.56525L14.8106 7.43459ZM28.1439 15.4346C28.4919 16.0359 28.6666 16.3359 28.6666 16.6666C28.6666 16.9973 28.4933 17.2973 28.1439 17.8986L26.4773 20.7679C26.1279 21.3693 25.9533 21.6706 25.6666 21.8346C25.3799 21.9999 25.0306 21.9999 24.3333 21.9999H20.9999C20.3026 21.9999 19.9546 21.9999 19.6666 21.8346C19.3786 21.6706 19.2053 21.3693 18.8559 20.7679L17.1893 17.8986C16.8413 17.2973 16.6666 16.9973 16.6666 16.6666C16.6666 16.3359 16.8399 16.0359 17.1906 15.4346L18.8559 12.5653C19.2053 11.9639 19.3799 11.6639 19.6666 11.4986C19.9546 11.3333 20.3026 11.3333 20.9999 11.3333H24.3333C25.0306 11.3333 25.3799 11.3333 25.6666 11.4986C25.9533 11.6639 26.1279 11.9639 26.4773 12.5653L28.1439 15.4346ZM14.8106 22.1013C15.1586 22.7026 15.3333 23.0039 15.3333 23.3333C15.3333 23.6626 15.1599 23.9639 14.8093 24.5653L13.1439 27.4346C12.7946 28.0359 12.6213 28.3373 12.3333 28.5013C12.0453 28.6666 11.6973 28.6666 10.9999 28.6666H7.66659C6.96925 28.6666 6.62125 28.6666 6.33325 28.5013C6.04525 28.3373 5.87192 28.0359 5.52259 27.4346L3.85592 24.5653C3.50792 23.9639 3.33325 23.6626 3.33325 23.3333C3.33325 23.0039 3.50659 22.7026 3.85725 22.1013L5.52259 19.2319C5.87192 18.6306 6.04525 18.3306 6.33325 18.1653C6.62125 17.9999 6.96925 17.9999 7.66659 17.9999H10.9999C11.6973 17.9999 12.0453 17.9999 12.3333 18.1653C12.6213 18.3293 12.7946 18.6306 13.1439 19.2319L14.8106 22.1013Z" stroke="#FAFAFA" stroke-width="1.5" stroke-linecap="round" stroke-linejoin="round"/>
</g>
<defs>
<clipPath id="clip0_26667_50569">
<rect width="32" height="32" fill="white"/>
</clipPath>
</defs>
</svg>
