<svg width="32" height="32" viewBox="0 0 32 32" fill="none" xmlns="http://www.w3.org/2000/svg">
<g clip-path="url(#clip0_26667_49863)">
<path d="M17.5561 27.9587C15.6716 29.0775 13.4682 29.5367 11.2937 29.2639C9.11919 28.9911 7.09749 28.0018 5.54776 26.4523C3.99803 24.9027 3.00855 22.8811 2.73554 20.7066C2.46252 18.5321 2.92152 16.3287 4.04008 14.4441M18.6667 24.0001C21.4957 24.0001 24.2088 22.8763 26.2092 20.8759C28.2096 18.8755 29.3334 16.1624 29.3334 13.3334C29.3334 10.5044 28.2096 7.79133 26.2092 5.79094C24.2088 3.79055 21.4957 2.66675 18.6667 2.66675C15.8378 2.66675 13.1247 3.79055 11.1243 5.79094C9.12388 7.79133 8.00008 10.5044 8.00008 13.3334C8.00008 16.1624 9.12388 18.8755 11.1243 20.8759C13.1247 22.8763 15.8378 24.0001 18.6667 24.0001Z" stroke="white" stroke-width="1.5" stroke-linecap="round" stroke-linejoin="round"/>
</g>
<defs>
<clipPath id="clip0_26667_49863">
<rect width="32" height="32" fill="white"/>
</clipPath>
</defs>
</svg>
