<svg width="32" height="32" viewBox="0 0 32 32" fill="none" xmlns="http://www.w3.org/2000/svg">
<g clip-path="url(#clip0_26667_49609)">
<path d="M26.6666 29.3335V22.6668C26.6666 20.1522 26.6666 18.8962 25.8853 18.1148C25.1039 17.3335 23.8479 17.3335 21.3333 17.3335L15.9999 29.3335L10.6666 17.3335C8.15192 17.3335 6.89592 17.3335 6.11459 18.1148C5.33325 18.8962 5.33325 20.1522 5.33325 22.6668V29.3335" stroke="white" stroke-width="1.5" stroke-linecap="round" stroke-linejoin="round"/>
<path d="M15.9999 20.0001L15.3333 25.3334L15.9999 27.3334L16.6666 25.3334L15.9999 20.0001ZM15.9999 20.0001L14.6666 17.3334H17.3333L15.9999 20.0001ZM20.6666 8.66675V7.33341C20.6666 6.72058 20.5459 6.11374 20.3114 5.54756C20.0768 4.98137 19.7331 4.46692 19.2997 4.03358C18.8664 3.60024 18.352 3.2565 17.7858 3.02198C17.2196 2.78745 16.6128 2.66675 15.9999 2.66675C15.3871 2.66675 14.7802 2.78745 14.2141 3.02198C13.6479 3.2565 13.1334 3.60024 12.7001 4.03358C12.2667 4.46692 11.923 4.98137 11.6885 5.54756C11.454 6.11374 11.3333 6.72058 11.3333 7.33341V8.66675C11.3333 9.27958 11.454 9.88642 11.6885 10.4526C11.923 11.0188 12.2667 11.5332 12.7001 11.9666C13.1334 12.3999 13.6479 12.7437 14.2141 12.9782C14.7802 13.2127 15.3871 13.3334 15.9999 13.3334C16.6128 13.3334 17.2196 13.2127 17.7858 12.9782C18.352 12.7437 18.8664 12.3999 19.2997 11.9666C19.7331 11.5332 20.0768 11.0188 20.3114 10.4526C20.5459 9.88642 20.6666 9.27958 20.6666 8.66675Z" stroke="white" stroke-width="1.5" stroke-linecap="round" stroke-linejoin="round"/>
</g>
<defs>
<clipPath id="clip0_26667_49609">
<rect width="32" height="32" fill="white"/>
</clipPath>
</defs>
</svg>
