<svg width="32" height="32" viewBox="0 0 32 32" fill="none" xmlns="http://www.w3.org/2000/svg">
<g clip-path="url(#clip0_26667_47881)">
<path d="M7.89334 7.89334C10.8773 4.91067 12.3693 3.42 14.1147 2.928C15.3474 2.57966 16.6526 2.57966 17.8853 2.928C19.6307 3.42 21.1227 4.91067 24.1053 7.89467C27.088 10.8787 28.58 12.3693 29.072 14.1147C29.4203 15.3474 29.4203 16.6526 29.072 17.8853C28.58 19.6307 27.0893 21.1227 24.1053 24.1053C21.1213 27.088 19.6307 28.58 17.8853 29.072C16.6526 29.4203 15.3474 29.4203 14.1147 29.072C12.3693 28.58 10.8773 27.0893 7.89467 24.1053C4.912 21.1213 3.42 19.6307 2.928 17.8853C2.57966 16.6526 2.57966 15.3474 2.928 14.1147C3.42 12.3693 4.91067 10.8773 7.89334 7.89334Z" stroke="white" stroke-width="1.5" stroke-linecap="round" stroke-linejoin="round"/>
</g>
<defs>
<clipPath id="clip0_26667_47881">
<rect width="32" height="32" fill="white"/>
</clipPath>
</defs>
</svg>
