<svg width="32" height="32" viewBox="0 0 32 32" fill="none" xmlns="http://www.w3.org/2000/svg">
<g clip-path="url(#clip0_26667_48581)">
<path d="M13.5706 5.48541C14.6999 3.60541 15.2652 2.66675 16.1012 2.66675C16.9372 2.66675 17.5012 3.60675 18.6319 5.48541L18.8386 5.82941C19.6479 7.17608 20.0532 7.85075 20.6986 8.22941L20.7919 8.28275C21.4492 8.63875 22.2372 8.63875 23.8119 8.63875H24.1719C26.2386 8.63875 27.2732 8.63875 27.7159 9.21208C27.8226 9.35075 27.9026 9.50364 27.9559 9.67075C28.1732 10.3627 27.5799 11.2067 26.3946 12.8974C25.4372 14.2601 24.9586 14.9427 24.8826 15.7094C24.8633 15.9027 24.8633 16.0974 24.8826 16.2907C24.9586 17.0574 25.4372 17.7401 26.3946 19.1041C27.5799 20.7934 28.1732 21.6374 27.9559 22.3294C27.9026 22.4956 27.8226 22.6485 27.7159 22.7881C27.2732 23.3614 26.2399 23.3614 24.1732 23.3614H23.8119C22.2372 23.3614 21.4492 23.3614 20.7906 23.7174L20.6986 23.7707C20.0532 24.1494 19.6492 24.8241 18.8386 26.1707L18.6319 26.5147C17.5012 28.3947 16.9372 29.3334 16.1012 29.3334C15.2652 29.3334 14.7012 28.3934 13.5706 26.5147L13.3932 26.2214C12.5532 24.8241 12.1332 24.1254 11.4572 23.7441C10.7799 23.3614 9.9639 23.3614 8.3319 23.3614H7.9439C5.7159 23.3614 4.60123 23.3614 4.17057 22.6601L4.11723 22.5667C3.73723 21.8374 4.30923 20.8841 5.4559 18.9787C6.31323 17.5521 6.74123 16.8401 6.7559 16.0547V15.9454C6.74256 15.1587 6.31323 14.4467 5.4559 13.0214C4.30923 11.1147 3.7359 10.1627 4.11723 9.43208C4.13323 9.40097 4.15101 9.36986 4.17057 9.33875C4.60123 8.63875 5.7159 8.63875 7.9439 8.63875H8.3319C9.9639 8.63875 10.7799 8.63875 11.4572 8.25608C12.1332 7.87475 12.5532 7.17608 13.3932 5.78008L13.5706 5.48541Z" stroke="white" stroke-width="1.5" stroke-linecap="round" stroke-linejoin="round"/>
<path d="M20 16C20 17.0609 19.5786 18.0783 18.8284 18.8284C18.0783 19.5786 17.0609 20 16 20C14.9391 20 13.9217 19.5786 13.1716 18.8284C12.4214 18.0783 12 17.0609 12 16C12 14.9391 12.4214 13.9217 13.1716 13.1716C13.9217 12.4214 14.9391 12 16 12C17.0609 12 18.0783 12.4214 18.8284 13.1716C19.5786 13.9217 20 14.9391 20 16Z" stroke="white" stroke-width="1.5" stroke-linecap="round" stroke-linejoin="round"/>
</g>
<defs>
<clipPath id="clip0_26667_48581">
<rect width="32" height="32" fill="white"/>
</clipPath>
</defs>
</svg>
