<svg width="32" height="32" viewBox="0 0 32 32" fill="none" xmlns="http://www.w3.org/2000/svg">
<g clip-path="url(#clip0_26667_48661)">
<path d="M29.3334 4.66675L24.7867 7.64408C23.6993 8.35549 22.3983 8.6666 21.1067 8.52408L19.3694 8.33341C18.5908 8.24756 17.8028 8.32602 17.0563 8.56373C16.3099 8.80143 15.6217 9.1931 15.0361 9.71341L11.6801 12.7107C11.3702 12.9842 11.1202 13.3186 10.9457 13.6932C10.7712 14.0678 10.6759 14.4744 10.6659 14.8875C10.6559 15.3006 10.7313 15.7113 10.8875 16.0939C11.0437 16.4764 11.2772 16.8226 11.5734 17.1107C12.6427 18.1601 14.3294 18.2974 15.5601 17.4334L17.7801 15.8761C18.0921 15.6587 18.4814 15.5761 18.8561 15.6494L19.3001 15.7374C20.0623 15.8884 20.8475 15.8792 21.606 15.7102C22.3644 15.5413 23.0794 15.2163 23.7054 14.7561L24.4921 14.1761" stroke="white" stroke-width="1.5" stroke-linecap="round" stroke-linejoin="round"/>
<path d="M18.8561 15.6494C19.6827 17.3227 20.8001 21.2001 24.0001 23.3334M24.0001 23.3334C22.4441 25.1107 18.1334 27.3334 13.3334 27.3334C7.33341 27.3334 2.66675 20.6667 2.66675 20.6667M24.0001 23.3334C24.0001 23.3334 27.3334 22.6667 29.3334 20.6667M16.0001 9.02408C14.9507 8.37875 12.0267 7.44408 8.04275 7.34275C7.57839 7.33441 7.12339 7.2107 6.71875 6.98275L2.66675 4.66675" stroke="white" stroke-width="1.5" stroke-linecap="round" stroke-linejoin="round"/>
</g>
<defs>
<clipPath id="clip0_26667_48661">
<rect width="32" height="32" fill="white"/>
</clipPath>
</defs>
</svg>
