<svg width="32" height="32" viewBox="0 0 32 32" fill="none" xmlns="http://www.w3.org/2000/svg">
<g clip-path="url(#clip0_26667_50166)">
<path d="M25.3334 13.3333C22.6601 12.4907 19.4507 12 16.0001 12C12.5494 12 9.34008 12.4907 6.66675 13.3333V18C9.34008 17.1573 12.5494 16.6667 16.0001 16.6667C19.4507 16.6667 22.6601 17.1573 25.3334 18V13.3333Z" stroke="white" stroke-width="1.5" stroke-linecap="round" stroke-linejoin="round"/>
<path d="M25.3333 17.3334V20.0307C25.3333 22.8721 23.9573 25.5054 21.708 26.9667L19.8413 28.1801C18.7014 28.9324 17.3657 29.3335 16 29.3335C14.6342 29.3335 13.2985 28.9324 12.1586 28.1801L10.292 26.9667C8.04263 25.5067 6.66663 22.8734 6.66663 20.0307V17.3334M25.3333 13.3334L26.8346 12.5427C28.5186 11.4401 29.36 10.8867 29.3333 10.0974C29.3053 9.30808 28.4266 8.82808 26.6706 7.86808L20.3666 4.42408C18.224 3.25208 17.1533 2.66675 16 2.66675C14.8466 2.66675 13.776 3.25341 11.6333 4.42408L5.33063 7.86675C3.5733 8.82808 2.6933 9.30808 2.66663 10.0974C2.63996 10.8867 3.47996 11.4387 5.16396 12.5427L6.66663 13.3334" stroke="white" stroke-width="1.5" stroke-linecap="round" stroke-linejoin="round"/>
</g>
<defs>
<clipPath id="clip0_26667_50166">
<rect width="32" height="32" fill="white"/>
</clipPath>
</defs>
</svg>
