<svg width="32" height="32" viewBox="0 0 32 32" fill="none" xmlns="http://www.w3.org/2000/svg">
<g clip-path="url(#clip0_26667_46584)">
<path d="M14.6667 20.0001H17.3334M19.3334 29.3334L18.9121 28.7747C17.9654 27.5161 17.7294 25.5921 18.3294 24.0001M12.6667 29.3334L13.0881 28.7747C14.0347 27.5161 14.2707 25.5921 13.6707 24.0001M9.33341 29.3334H22.6667M18.6667 2.66675H13.3334C8.96008 2.66675 6.77475 2.66675 5.22541 3.75208C4.65214 4.15351 4.15351 4.65214 3.75208 5.22541C2.66675 6.77341 2.66675 8.96008 2.66675 13.3334C2.66675 17.7067 2.66675 19.8921 3.75208 21.4414C4.15351 22.0147 4.65214 22.5133 5.22541 22.9147C6.77341 24.0001 8.96008 24.0001 13.3334 24.0001H18.6667C23.0401 24.0001 25.2254 24.0001 26.7747 22.9147C27.348 22.5133 27.8467 22.0147 28.2481 21.4414C29.3334 19.8934 29.3334 17.7067 29.3334 13.3334C29.3334 8.96008 29.3334 6.77475 28.2481 5.22541C27.8467 4.65214 27.348 4.15351 26.7747 3.75208C25.2267 2.66675 23.0401 2.66675 18.6667 2.66675Z" stroke="white" stroke-width="1.5" stroke-linecap="round" stroke-linejoin="round"/>
</g>
<defs>
<clipPath id="clip0_26667_46584">
<rect width="32" height="32" fill="white"/>
</clipPath>
</defs>
</svg>
