<svg width="32" height="32" viewBox="0 0 32 32" fill="none" xmlns="http://www.w3.org/2000/svg">
<g clip-path="url(#clip0_26667_48636)">
<path d="M17.5974 10.6667H14.4027C9.8107 10.6667 6.71471 15.4401 8.52404 19.7334C8.64492 20.0239 8.84879 20.2724 9.11013 20.4476C9.37148 20.6229 9.6787 20.7172 9.99337 20.7187H11.1187C11.4974 20.7187 11.828 20.9801 11.92 21.3547L13.368 27.2441C13.5093 27.8368 13.8455 28.365 14.3228 28.7438C14.8 29.1227 15.3907 29.3303 16 29.3334C16.6094 29.3303 17.2 29.1227 17.6773 28.7438C18.1545 28.365 18.4908 27.8368 18.632 27.2441L20.08 21.3547C20.1228 21.1742 20.2251 21.0133 20.3705 20.8979C20.5159 20.7825 20.6958 20.7194 20.8814 20.7187H22.0067C22.3215 20.7171 22.6289 20.6226 22.8902 20.4471C23.1516 20.2716 23.3554 20.0229 23.476 19.7321C25.2854 15.4414 22.1894 10.6667 17.596 10.6667" stroke="white" stroke-width="1.5" stroke-linecap="round" stroke-linejoin="round"/>
<path d="M16 10.6667C18.2091 10.6667 20 8.87589 20 6.66675C20 4.45761 18.2091 2.66675 16 2.66675C13.7909 2.66675 12 4.45761 12 6.66675C12 8.87589 13.7909 10.6667 16 10.6667Z" stroke="white" stroke-width="1.5" stroke-linecap="round" stroke-linejoin="round"/>
</g>
<defs>
<clipPath id="clip0_26667_48636">
<rect width="32" height="32" fill="white"/>
</clipPath>
</defs>
</svg>
