<svg width="32" height="32" viewBox="0 0 32 32" fill="none" xmlns="http://www.w3.org/2000/svg">
<g clip-path="url(#clip0_26667_48296)">
<path d="M14.6774 16.0001H14.6641M8.01075 13.3334H7.99742M16.0107 24.0001H15.9974M13.3334 8.00006L12.0001 9.3334M22.6667 18.6667L21.3334 20.0001M9.33341 20.0001L10.6667 21.3334M16.0774 29.3334C22.6307 29.3334 28.0854 24.6587 29.2561 18.4787C29.6001 16.6627 28.7907 16.7587 27.0801 16.4587C25.8667 16.2454 24.7334 15.4227 24.3107 14.1174C24.0241 13.2294 23.9174 13.1934 22.9801 13.1547C21.0481 13.0747 19.5001 11.0254 20.2707 9.36806C20.5587 8.7494 20.5494 8.67873 20.0107 8.25873C19.0681 7.5254 18.6281 6.15606 18.7974 4.83473C18.9801 3.41206 19.0867 2.90006 17.5801 2.74006C9.94275 1.92673 2.66675 8.02673 2.66675 15.9934C2.66675 23.3601 8.67075 29.3334 16.0774 29.3334Z" stroke="white" stroke-width="1.5" stroke-linecap="round" stroke-linejoin="round"/>
</g>
<defs>
<clipPath id="clip0_26667_48296">
<rect width="32" height="32" fill="white"/>
</clipPath>
</defs>
</svg>
