<svg width="32" height="32" viewBox="0 0 32 32" fill="none" xmlns="http://www.w3.org/2000/svg">
<g clip-path="url(#clip0_26667_49886)">
<path d="M6.66675 13.3335C8.87589 13.3335 10.6667 11.5426 10.6667 9.3335C10.6667 7.12436 8.87589 5.3335 6.66675 5.3335C4.45761 5.3335 2.66675 7.12436 2.66675 9.3335C2.66675 11.5426 4.45761 13.3335 6.66675 13.3335Z" stroke="white" stroke-width="1.5" stroke-linecap="round" stroke-linejoin="round"/>
<path d="M10.6668 29.3334C13.6123 29.3334 16.0002 26.9456 16.0002 24.0001C16.0002 21.0546 13.6123 18.6667 10.6668 18.6667C7.72131 18.6667 5.3335 21.0546 5.3335 24.0001C5.3335 26.9456 7.72131 29.3334 10.6668 29.3334Z" stroke="white" stroke-width="1.5" stroke-linecap="round" stroke-linejoin="round"/>
<path d="M22.6667 16.0001C26.3486 16.0001 29.3333 13.0153 29.3333 9.33341C29.3333 5.65152 26.3486 2.66675 22.6667 2.66675C18.9848 2.66675 16 5.65152 16 9.33341C16 13.0153 18.9848 16.0001 22.6667 16.0001Z" stroke="white" stroke-width="1.5" stroke-linecap="round" stroke-linejoin="round"/>
</g>
<defs>
<clipPath id="clip0_26667_49886">
<rect width="32" height="32" fill="white"/>
</clipPath>
</defs>
</svg>
