<svg width="32" height="32" viewBox="0 0 32 32" fill="none" xmlns="http://www.w3.org/2000/svg">
<g clip-path="url(#clip0_26667_48262)">
<path d="M23.6493 8.35059L28.6666 3.33325M23.6493 8.35059C23.0626 7.76392 23.4439 5.36125 23.5959 3.99992M23.6493 8.35059C24.2359 8.93725 26.6386 8.55592 27.9999 8.40392M8.35059 23.6493L3.33325 28.6666M8.35059 23.6493C7.76392 23.0626 5.36125 23.4439 3.99992 23.5959M8.35059 23.6493C8.93725 24.2359 8.55592 26.6386 8.40392 27.9999M23.6493 23.6493L28.6666 28.6666M23.6493 23.6493C24.2359 23.0626 26.6386 23.4439 27.9999 23.5959M23.6493 23.6493C23.0626 24.2359 23.4439 26.6386 23.5959 27.9999M8.35059 8.35059L3.33325 3.33325M8.35059 8.35059C8.93725 7.76392 8.55592 5.36125 8.40392 3.99992M8.35059 8.35059C7.76392 8.93725 5.36125 8.55592 3.99992 8.40392M15.9999 9.33325C14.2318 9.33325 12.5361 10.0356 11.2859 11.2859C10.0356 12.5361 9.33325 14.2318 9.33325 15.9999C9.33325 17.768 10.0356 19.4637 11.2859 20.714C12.5361 21.9642 14.2318 22.6666 15.9999 22.6666C17.768 22.6666 19.4637 21.9642 20.714 20.714C21.9642 19.4637 22.6666 17.768 22.6666 15.9999C22.6666 14.2318 21.9642 12.5361 20.714 11.2859C19.4637 10.0356 17.768 9.33325 15.9999 9.33325Z" stroke="white" stroke-width="1.5" stroke-linecap="round" stroke-linejoin="round"/>
</g>
<defs>
<clipPath id="clip0_26667_48262">
<rect width="32" height="32" fill="white"/>
</clipPath>
</defs>
</svg>
