<svg width="32" height="32" viewBox="0 0 32 32" fill="none" xmlns="http://www.w3.org/2000/svg">
<g clip-path="url(#clip0_26667_50737)">
<path d="M20.6665 12.0774L21.2279 9.20408C21.8879 5.82141 19.3639 2.66675 15.9999 2.66675C12.6359 2.66675 10.1119 5.82141 10.7719 9.20408L11.3319 12.0774C11.7785 14.3574 13.7332 16.0001 15.9999 16.0001C18.2692 16.0001 20.2225 14.3587 20.6665 12.0774Z" stroke="white" stroke-width="1.5" stroke-linecap="round" stroke-linejoin="round"/>
<path d="M14.3333 15.3335C14.3333 15.0683 14.2279 14.8139 14.0404 14.6264C13.8529 14.4389 13.5985 14.3335 13.3333 14.3335C13.0681 14.3335 12.8137 14.4389 12.6262 14.6264C12.4387 14.8139 12.3333 15.0683 12.3333 15.3335H14.3333ZM19.6666 15.3335C19.6666 15.0683 19.5613 14.8139 19.3737 14.6264C19.1862 14.4389 18.9319 14.3335 18.6666 14.3335C18.4014 14.3335 18.1471 14.4389 17.9595 14.6264C17.772 14.8139 17.6666 15.0683 17.6666 15.3335H19.6666ZM12.3333 15.3335V17.0428H14.3333V15.3335H12.3333ZM17.6666 15.3335V17.0428H19.6666V15.3335H17.6666ZM16.0813 20.3308L16 20.3335V22.3335L16.16 22.3308L16.0813 20.3308ZM15.8413 22.3308L16 22.3335V20.3335L15.9186 20.3308L15.8413 22.3308ZM17.6666 17.0428C17.6666 17.7295 17.6586 18.0628 17.568 18.3682C17.4893 18.6348 17.3213 18.9522 16.828 19.4642L18.2706 20.8508C18.8946 20.2015 19.284 19.6135 19.4853 18.9375C19.6746 18.3015 19.6666 17.6575 19.6666 17.0428H17.6666ZM16.16 22.3308C16.2106 22.3282 16.392 22.3255 16.6026 22.2508C16.7837 22.1859 16.9527 22.0913 17.1026 21.9708C17.364 21.7708 17.7186 21.4242 18.2706 20.8508L16.828 19.4642C16.2626 20.0535 16.0066 20.2908 15.8853 20.3842C15.832 20.4242 15.86 20.3922 15.9453 20.3628C16.044 20.3295 16.1346 20.3282 16.0813 20.3308L16.16 22.3308ZM12.3333 17.0428C12.3333 17.6562 12.3253 18.3015 12.5146 18.9362C12.7146 19.6135 13.1053 20.2028 13.7306 20.8508L15.1706 19.4642C14.6773 18.9522 14.5106 18.6335 14.432 18.3682C14.3413 18.0628 14.3333 17.7295 14.3333 17.0428H12.3333ZM15.9186 20.3308C15.8653 20.3282 15.956 20.3295 16.0546 20.3628C16.14 20.3922 16.168 20.4242 16.1146 20.3842C15.9933 20.2908 15.736 20.0535 15.1706 19.4642L13.7293 20.8508C14.2813 21.4242 14.636 21.7708 14.8973 21.9708C15.036 22.0775 15.1986 22.1842 15.3973 22.2508C15.6093 22.3255 15.7893 22.3282 15.8413 22.3308L15.9186 20.3308Z" fill="white"/>
<path d="M13.3333 18.6667C9.008 19.9027 6.84667 20.52 5.528 22.112C5.4004 22.2665 5.27984 22.4267 5.16667 22.592C4.156 24.064 4.01867 25.944 4 29.3333M18.6667 18.6667C22.992 19.9027 25.1533 20.52 26.472 22.112C26.6 22.2667 26.7204 22.4267 26.8333 22.592C27.8453 24.0653 27.9813 25.9453 28 29.3333M16 21.3333V26.6667M10.6667 8H21.3333" stroke="white" stroke-width="1.5" stroke-linecap="round" stroke-linejoin="round"/>
</g>
<defs>
<clipPath id="clip0_26667_50737">
<rect width="32" height="32" fill="white"/>
</clipPath>
</defs>
</svg>
