<svg width="32" height="32" viewBox="0 0 32 32" fill="none" xmlns="http://www.w3.org/2000/svg">
<g clip-path="url(#clip0_26667_46425)">
<path d="M19.0641 7.83075L16.9374 13.5027M17.4947 6.24541L7.84008 9.75475M15.6694 18.6467L14.9974 24.0201M18.3854 17.1934L24.2814 20.1401M24.2281 22.4161L17.1041 25.5827M16.0001 18.6667C16.7073 18.6667 17.3856 18.3858 17.8857 17.8857C18.3858 17.3856 18.6667 16.7073 18.6667 16.0001C18.6667 15.2928 18.3858 14.6146 17.8857 14.1145C17.3856 13.6144 16.7073 13.3334 16.0001 13.3334C15.2928 13.3334 14.6146 13.6144 14.1145 14.1145C13.6144 14.6146 13.3334 15.2928 13.3334 16.0001C13.3334 16.7073 13.6144 17.3856 14.1145 17.8857C14.6146 18.3858 15.2928 18.6667 16.0001 18.6667ZM26.6667 24.0001C27.374 24.0001 28.0523 23.7191 28.5524 23.219C29.0525 22.7189 29.3334 22.0407 29.3334 21.3334C29.3334 20.6262 29.0525 19.9479 28.5524 19.4478C28.0523 18.9477 27.374 18.6667 26.6667 18.6667C25.9595 18.6667 25.2812 18.9477 24.7811 19.4478C24.281 19.9479 24.0001 20.6262 24.0001 21.3334C24.0001 22.0407 24.281 22.7189 24.7811 23.219C25.2812 23.7191 25.9595 24.0001 26.6667 24.0001ZM14.6667 29.3334C15.374 29.3334 16.0523 29.0525 16.5524 28.5524C17.0525 28.0523 17.3334 27.374 17.3334 26.6667C17.3334 25.9595 17.0525 25.2812 16.5524 24.7811C16.0523 24.281 15.374 24.0001 14.6667 24.0001C13.9595 24.0001 13.2812 24.281 12.7811 24.7811C12.281 25.2812 12.0001 25.9595 12.0001 26.6667C12.0001 27.374 12.281 28.0523 12.7811 28.5524C13.2812 29.0525 13.9595 29.3334 14.6667 29.3334ZM20.0001 8.00008C20.7073 8.00008 21.3856 7.71913 21.8857 7.21903C22.3858 6.71894 22.6667 6.04066 22.6667 5.33341C22.6667 4.62617 22.3858 3.94789 21.8857 3.4478C21.3856 2.9477 20.7073 2.66675 20.0001 2.66675C19.2928 2.66675 18.6146 2.9477 18.1145 3.4478C17.6144 3.94789 17.3334 4.62617 17.3334 5.33341C17.3334 6.04066 17.6144 6.71894 18.1145 7.21903C18.6146 7.71913 19.2928 8.00008 20.0001 8.00008ZM5.33341 13.3334C6.04066 13.3334 6.71894 13.0525 7.21903 12.5524C7.71913 12.0523 8.00008 11.374 8.00008 10.6667C8.00008 9.9595 7.71913 9.28123 7.21903 8.78113C6.71894 8.28103 6.04066 8.00008 5.33341 8.00008C4.62617 8.00008 3.94789 8.28103 3.4478 8.78113C2.9477 9.28123 2.66675 9.9595 2.66675 10.6667C2.66675 11.374 2.9477 12.0523 3.4478 12.5524C3.94789 13.0525 4.62617 13.3334 5.33341 13.3334Z" stroke="white" stroke-width="1.5" stroke-linecap="round" stroke-linejoin="round"/>
</g>
<defs>
<clipPath id="clip0_26667_46425">
<rect width="32" height="32" fill="white"/>
</clipPath>
</defs>
</svg>
