<svg width="33" height="32" viewBox="0 0 33 32" fill="none" xmlns="http://www.w3.org/2000/svg">
<ellipse cx="15.8949" cy="16.3376" rx="15.3949" ry="15.6623" fill="#006902"/>
<ellipse cx="17.7666" cy="15.6623" rx="14.7334" ry="14.8124" fill="#80CF75"/>
<ellipse cx="17.3457" cy="15.3588" rx="15.1543" ry="15.3588" fill="#99D99C"/>
<ellipse cx="17.4661" cy="15.4195" rx="13.8313" ry="13.9626" fill="#167E25"/>
<ellipse cx="17.1653" cy="15.5409" rx="13.4104" ry="13.4769" fill="#39933C"/>
<g clip-path="url(#clip0_23513_16942)">
<path d="M23.6478 11.4652C23.6673 11.6031 23.5369 11.5851 23.4781 11.6393C23.4781 11.7863 23.4781 11.9311 23.4781 12.0781C23.4781 12.207 23.4781 12.3336 23.4781 12.4626C23.4781 12.5123 23.4629 12.5643 23.4999 12.6073C23.5151 12.7294 23.5238 12.8493 23.4934 12.9692C23.489 12.994 23.4847 13.0189 23.4781 13.046C23.4542 13.4622 23.2041 13.7426 22.9366 14.0253C23.0541 14.1633 23.2193 14.2764 23.2998 14.4505C23.4803 14.8395 23.7587 15.1674 23.9327 15.5587C23.9936 15.6944 24.011 15.8256 23.9718 15.968C23.9675 15.9793 23.9609 15.9907 23.9566 16.002C23.9261 16.158 23.8283 16.2734 23.7369 16.3887C23.6978 16.4384 23.6499 16.4814 23.6043 16.5267C23.4129 16.7189 23.2367 16.9134 23.4433 17.2051C23.4455 17.2187 23.4499 17.23 23.452 17.2436C23.4847 17.316 23.4738 17.3906 23.4607 17.4652C23.4542 17.4788 23.4477 17.4946 23.4433 17.5082C23.4259 17.7321 23.2694 17.87 23.1476 18.0284C23.0562 18.1482 22.954 18.2568 23.028 18.4264C23.028 18.4648 23.0214 18.5033 23.0475 18.535C23.0715 18.596 23.0671 18.6571 23.0541 18.7181C23.0214 18.7475 23.028 18.786 23.0301 18.8244C23.0084 19.132 22.8301 19.3537 22.6583 19.5821C22.6061 19.6499 22.4799 19.6929 22.5191 19.8014C22.5626 19.9213 22.6517 20.0163 22.7692 20.0796C23.0736 20.2402 23.3672 20.4166 23.6391 20.6337C23.8609 20.8124 24.0697 21.0024 24.235 21.2398C24.372 21.4366 24.5177 21.6243 24.6742 21.8052C24.7982 21.95 24.9069 22.1083 24.97 22.2983C25.0092 22.4159 25.0657 22.5244 25.1396 22.6239C25.3593 22.9225 25.4789 23.2707 25.605 23.6168C25.6116 23.6371 25.6181 23.6597 25.6246 23.6801C25.642 23.7525 25.6572 23.8248 25.6746 23.8972C25.6746 23.9063 25.6725 23.9153 25.6725 23.9243C25.5768 23.956 25.4898 23.9696 25.4506 23.8407C25.4398 23.7751 25.4398 23.7072 25.418 23.6462C25.2005 23.0514 24.8743 22.5131 24.559 21.9726C24.4785 21.8324 24.3372 21.7283 24.2502 21.5926C23.9087 21.0589 23.4433 20.6767 22.904 20.3827C22.73 20.2877 22.5234 20.2176 22.4277 20.0208C22.3212 19.8037 22.132 19.6816 21.9732 19.5255C21.7753 19.3333 21.5557 19.3107 21.3099 19.4192C20.7836 19.6522 20.3726 20.0412 19.9703 20.4573C20.0268 20.498 20.079 20.5319 20.1268 20.5704C20.4161 20.7966 20.4139 21.0295 20.1268 21.2624C20.066 21.3122 20.0007 21.3687 19.9333 21.2896C19.8659 21.2104 19.9463 21.1629 19.992 21.1154C20.1943 20.9074 20.1812 20.8621 19.9485 20.688C19.7963 20.5749 19.6854 20.636 19.5614 20.7174C19.3505 20.8576 19.3592 21.2104 19.5875 21.319C19.8137 21.4275 20.0551 21.4479 20.2856 21.3439C20.5879 21.2082 20.8249 20.9684 21.0816 20.7626C21.3686 20.5342 21.9254 20.5546 22.195 20.8033C22.2472 20.8531 22.2842 20.9096 22.2298 20.9707C22.1428 21.0679 22.132 21.2036 22.058 21.3099C22.1102 21.2851 22.1537 21.2534 22.1907 21.2127C22.3342 21.0657 22.5038 20.9549 22.6626 20.8305C22.7474 20.7649 22.8214 20.7581 22.8388 20.8983C22.8322 20.9096 22.8257 20.9209 22.817 20.9345C22.5234 21.1765 22.2581 21.4524 21.9297 21.6492C21.5448 21.8776 21.1077 22.0337 20.8945 22.5041C20.8336 22.642 20.8162 22.7483 20.8858 22.8659C21.0098 23.0785 21.1794 23.2459 21.3926 23.3589C21.523 23.4291 21.6731 23.4245 21.8123 23.3929C21.9232 23.368 21.9101 23.2323 21.9602 23.1486C22.1776 22.7868 22.3734 22.4068 22.7518 22.1897C22.8148 22.1535 22.8801 22.1015 22.9345 22.1716C22.9997 22.2575 22.9214 22.3231 22.8605 22.3571C22.5365 22.5289 22.3603 22.8456 22.1907 23.1464C21.9993 23.4856 21.9384 23.6032 22.2016 23.8904C22.1776 23.913 22.1559 23.9334 22.132 23.956C22.0841 23.956 22.0385 23.956 21.9906 23.956C21.9602 23.9198 21.9275 23.8859 21.8971 23.8497C21.8797 23.671 21.8058 23.5806 21.6122 23.6055C21.4578 23.6258 21.3121 23.5557 21.1794 23.463C20.9641 23.316 20.801 23.1056 20.5901 22.9496C20.2291 22.685 19.9768 22.3503 19.9985 21.8527C20.0051 21.6899 19.9181 21.5926 19.7376 21.5723C19.4114 21.5361 19.2374 21.3665 19.2113 21.086C19.1917 20.8848 19.0917 20.7558 18.9155 20.6948C18.7372 20.6337 18.5197 20.7242 18.3849 20.9029C18.2674 21.0589 18.3262 21.2036 18.4131 21.3461C18.4523 21.4117 18.4871 21.4841 18.5415 21.5338C18.7437 21.7283 18.9068 21.9522 19.059 22.192C19.1787 22.3797 19.2461 22.5696 19.2417 22.7913C19.2395 22.9586 19.2374 23.1237 19.233 23.2911C19.2308 23.2956 19.2243 23.3001 19.2243 23.3024C19.2265 23.3115 19.233 23.3182 19.2374 23.325C19.2765 23.5354 19.3309 23.7389 19.4809 23.8995C19.4809 23.9198 19.4788 23.9402 19.4788 23.9583C19.4462 23.9583 19.4135 23.956 19.3809 23.956C19.37 23.9402 19.3592 23.9424 19.3505 23.956C19.2461 23.9854 19.2309 23.8927 19.2004 23.8316C19.1613 23.7547 19.1352 23.6733 19.1004 23.5828C18.996 23.6914 18.9525 23.8429 18.835 23.9311C18.8002 23.9311 18.7633 23.9243 18.735 23.9537C18.7002 23.956 18.6676 23.9583 18.6328 23.9605C18.6284 23.9379 18.6241 23.9176 18.6197 23.8949C18.7524 23.7185 18.8894 23.5444 19.0199 23.3657C19.0373 23.3409 19.0438 23.3001 19.0438 23.2662C19.046 23.0649 19.0416 22.8637 19.0438 22.6624C19.046 22.5696 19.0177 22.4882 18.9677 22.4136C18.7916 22.1535 18.635 21.8821 18.4044 21.6605C18.1957 21.4615 18.0848 21.2014 18.163 20.8915C18.1696 20.8802 18.1761 20.8689 18.1826 20.8576C18.3892 20.4777 18.9416 20.3216 19.2287 20.6541C19.2504 20.679 19.27 20.7264 19.307 20.6835C19.4875 20.4777 19.7571 20.4053 19.9442 20.2063C20.303 19.8218 20.6945 19.478 21.1773 19.2632C21.5187 19.1117 21.8384 19.0958 22.0928 19.365C22.3473 19.6341 22.3603 19.6205 22.5908 19.3378C22.6104 19.3152 22.6322 19.2949 22.6474 19.27C22.8105 19.0189 22.9105 18.7521 22.8279 18.406C22.4277 18.8154 21.9515 18.8606 21.4556 18.8086C21.2664 18.7883 21.0794 18.7792 20.8902 18.795C20.6336 18.8154 20.3769 18.8357 20.1203 18.8516C19.531 18.8878 18.9438 18.8312 18.3544 18.8199C18.0695 18.8131 17.7846 18.8335 17.5106 18.7159C17.428 18.682 17.3323 18.6865 17.241 18.6729C16.7408 18.596 16.2297 18.5757 15.7686 18.3065C15.5164 18.1573 15.2424 18.0464 14.9814 17.9108C14.2441 17.524 13.483 17.1803 12.8197 16.6533C12.5348 16.4271 12.463 16.1015 12.6283 15.769C12.6979 15.6311 12.7958 15.5632 12.9436 15.5723C13.1916 15.5858 13.4286 15.6514 13.6635 15.7215C13.9984 15.821 14.3246 15.9545 14.6617 16.0359C15.2271 16.1761 15.8013 16.2824 16.3711 16.4136C17.0974 16.5787 17.8347 16.6737 18.5719 16.7528C18.8959 16.789 19.2222 16.7822 19.5462 16.8116C20.2987 16.8795 21.0511 16.927 21.8058 16.8523C21.9928 16.8342 22.182 16.8048 22.356 16.7234C22.9257 16.452 23.1845 15.9364 23.3411 15.3461C23.3933 15.1471 23.3716 14.9548 23.2781 14.7762C23.1671 14.5658 23.0258 14.3827 22.8366 14.2198C22.6583 14.5794 22.3516 14.6495 22.008 14.6405C21.9319 14.6382 21.8384 14.6337 21.8449 14.5319C21.8492 14.4347 21.9406 14.4347 22.0189 14.4324C22.1167 14.4301 22.2146 14.4301 22.3103 14.4143C22.4408 14.3917 22.5517 14.3329 22.6039 14.1768C22.4234 14.1768 22.2559 14.1768 22.0906 14.1768C22.0298 14.1768 21.9928 14.1497 21.9928 14.0819C21.9928 14.0185 22.0276 13.9801 22.0863 13.9756C22.1537 13.971 22.2233 13.9733 22.2907 13.9801C22.7735 14.0344 23.3172 13.4916 23.2846 12.9827C23.2737 12.9872 23.2607 12.9872 23.2541 12.994C23.2193 13.0347 23.1889 13.0754 23.1541 13.1162C22.9475 13.3559 22.7105 13.5526 22.3951 13.6001C21.5687 13.7268 20.7445 13.6974 19.9268 13.5119C19.6267 13.4441 19.5853 13.3672 19.6288 13.0506C19.6419 12.9578 19.6897 12.8855 19.7289 12.8063C19.8485 12.5779 20.0681 12.4309 20.1964 12.2183C20.4052 11.8745 20.7075 11.6665 21.0228 11.4607C21.0903 11.4154 21.1577 11.3702 21.2403 11.3589C21.6905 11.3069 22.1407 11.2843 22.5887 11.3815C22.7996 11.4267 22.954 11.5353 23.0649 11.7253C23.1237 11.8293 23.1976 11.9243 23.2933 12.0645C23.2998 11.9469 23.3042 11.8858 23.3042 11.8225C23.3063 11.4064 23.1324 11.2119 22.7278 11.1712C22.5408 11.1531 22.3538 11.1237 22.1646 11.1124C21.6731 11.0875 21.1794 11.0468 20.7227 11.3091C20.5053 11.4335 20.3139 11.5918 20.1486 11.7818C20.1094 11.827 20.0638 11.8723 20.0051 11.809C19.9572 11.7569 19.9594 11.7049 20.0051 11.6506C20.2987 11.3137 20.6423 11.0536 21.0772 10.9518C21.5361 10.8478 21.9971 10.8907 22.4582 10.9405C22.7018 10.9676 22.9518 10.9654 23.1671 11.1146C23.1845 11.1282 23.2019 11.1463 23.2172 11.1124C22.991 10.8907 22.7344 10.7392 22.4169 10.7211C21.8579 10.6895 21.2969 10.6555 20.7662 10.9021C20.701 10.9315 20.6401 10.988 20.5922 10.8975C20.5444 10.8048 20.614 10.7505 20.6814 10.7166C20.8467 10.6329 21.0141 10.5605 21.2033 10.5605C21.2142 10.5605 21.2229 10.556 21.2316 10.5492C21.66 10.4882 22.0906 10.461 22.5452 10.5334C22.4517 10.3389 22.3451 10.1896 22.219 10.0653C21.6818 9.54283 21.0729 9.14931 20.3443 8.97291C19.6093 8.7965 18.8938 8.85078 18.187 9.11765C18.1239 9.14253 18.0891 9.16062 18.1522 9.21942C18.4523 9.50664 18.6393 9.87528 18.8394 10.2371C18.9655 10.4656 19.1025 10.6895 19.0221 10.9722C19.0069 11.0264 19.0416 11.0468 19.0656 11.0785C19.1721 11.2096 19.2983 11.3295 19.3853 11.472C19.5549 11.7524 19.5353 12.0736 19.5288 12.3879C19.5288 12.4218 19.5244 12.4761 19.4896 12.4784C19.3439 12.4897 19.4157 12.5892 19.4222 12.6548C19.4288 12.7317 19.4483 12.8063 19.4592 12.8832C19.4701 12.9511 19.4983 13.037 19.3983 13.0574C19.2896 13.08 19.283 12.994 19.2743 12.9126C19.2439 12.6073 19.0982 12.3721 18.8894 12.1618C18.6654 11.9333 18.4131 11.7321 18.1978 11.4969C17.9412 11.2142 17.6737 10.9699 17.3105 10.8546C17.0496 10.7709 16.806 10.608 16.5276 10.608C15.9339 10.6103 15.3424 10.6578 14.7465 10.6374C14.4247 10.6261 14.105 10.7302 13.8505 10.9428C13.6222 11.1373 13.433 11.3815 13.2264 11.6031C13.1655 11.6665 13.1481 11.7479 13.1372 11.8293C13.122 11.9401 13.1763 11.9673 13.2699 11.9446C13.3851 11.9175 13.4286 11.8135 13.4873 11.7298C13.7026 11.4132 13.981 11.1983 14.3442 11.083C14.9814 10.8817 15.6295 10.8138 16.2906 10.8387C16.5037 10.8478 16.7125 10.8907 16.8973 11.0038C17.341 11.273 17.7803 11.5466 18.2457 11.7728C18.4893 11.8904 18.6828 12.0984 18.7894 12.3698C18.8807 12.6005 18.9742 12.8312 19.0525 13.0664C19.083 13.1569 19.1221 13.2202 19.2004 13.2654C19.3135 13.3333 19.3613 13.435 19.3592 13.5775C19.357 13.7426 19.2765 13.8489 19.1526 13.9213C18.8176 14.1203 18.5088 14.3487 18.2653 14.6631C18.0173 14.9865 17.7042 15.2217 17.3258 15.3529C17.0713 15.4411 16.8147 15.5225 16.569 15.6356C16.4232 15.7034 16.271 15.7622 16.1057 15.7441C16.0427 15.7374 15.9513 15.769 15.9492 15.6582C15.947 15.5587 16.0253 15.5519 16.097 15.5564C16.184 15.5609 16.2645 15.5361 16.345 15.5021C16.6538 15.38 16.9604 15.2534 17.2779 15.1516C17.7324 15.0069 18.0347 14.6495 18.3414 14.2764C18.1978 14.2605 18.0739 14.2334 17.9499 14.2357C17.3301 14.2424 16.7212 14.1429 16.1057 14.0886C15.6882 14.0525 15.2728 13.9891 14.927 13.7155C14.6639 13.5074 14.4551 13.2315 14.1724 13.0438C14.1376 13.0212 14.118 12.9782 14.1398 12.933C14.1615 12.8855 14.2028 12.8651 14.2528 12.8742C14.3116 12.8832 14.3616 12.9104 14.4051 12.9511C14.5573 13.0958 14.7161 13.2315 14.8574 13.3853C15.1119 13.6612 15.4359 13.7765 15.7839 13.8421C16.2166 13.9213 16.6603 13.9258 17.0952 13.9846C17.5171 14.0412 17.939 14.0344 18.3609 14.0502C18.6611 14.0615 18.909 13.8693 19.1308 13.6657C19.1808 13.6205 19.1917 13.5481 19.1482 13.4871C19.1221 13.4486 19.0764 13.4011 19.0351 13.4305C18.9199 13.5142 18.7807 13.4803 18.6589 13.5413C18.1826 13.7743 17.6868 13.7811 17.1692 13.7087C16.6559 13.6363 16.1732 13.4531 15.6817 13.3107C15.3968 13.227 15.1032 13.1116 14.8966 12.8629C14.7226 12.6548 14.4812 12.5779 14.2463 12.4897C13.968 12.3834 13.6961 12.2568 13.4351 12.112C13.4264 12.112 13.4156 12.112 13.4069 12.1143C13.3742 12.1233 13.3395 12.1301 13.3068 12.1391C13.0633 12.1979 12.9393 12.0849 12.948 11.8225C12.9523 11.671 13.0024 11.5466 13.1046 11.4403C13.2699 11.2662 13.433 11.092 13.5939 10.9156C13.9136 10.5628 14.3355 10.4588 14.7726 10.4294C15.101 10.4068 15.4316 10.4633 15.7643 10.4271C16.1275 10.3887 16.495 10.3841 16.8604 10.3909C17.0887 10.3955 17.3192 10.4407 17.5454 10.4068C17.7716 10.3728 17.9891 10.4158 18.2109 10.4271C18.3501 10.4339 18.474 10.5017 18.5784 10.6013C18.6589 10.6759 18.7394 10.7505 18.8198 10.8229C18.8307 10.8342 18.8437 10.8455 18.8568 10.8252C18.859 10.8206 18.8481 10.8071 18.8437 10.798C18.8481 10.7053 18.8111 10.6239 18.772 10.5447C18.498 9.98384 18.1848 9.45237 17.7085 9.05206C17.4867 8.86661 17.2584 8.6495 16.9735 8.61105C16.3123 8.52059 15.6447 8.42108 14.9749 8.53189C14.5921 8.59522 14.2115 8.6789 13.9136 8.98195C13.7809 9.11765 13.6222 9.22847 13.4743 9.34833C13.4134 9.39809 13.3438 9.41166 13.2938 9.33929C13.2394 9.26239 13.3047 9.2149 13.3568 9.18323C13.4765 9.1086 13.57 9.00683 13.6787 8.91863C13.8396 8.78745 13.9832 8.6201 14.1789 8.54546C14.7117 8.34192 15.2598 8.26276 15.8274 8.29669C16.2123 8.3193 16.5972 8.37358 16.9822 8.40298C16.943 7.73807 16.3993 7.08221 15.7556 6.8764C15.4685 6.78594 15.1684 6.76785 14.8748 6.7588C14.3464 6.74071 13.807 6.68869 13.3155 6.95782C13.0089 7.12518 12.7218 7.30837 12.5109 7.62499C12.2956 7.9484 12.139 8.30573 11.928 8.62914C11.8476 8.53868 11.9215 8.42334 11.8867 8.32609C12.0737 7.90769 12.2999 7.50739 12.624 7.19076C12.9002 6.92163 13.2329 6.72714 13.6091 6.63215C13.6222 6.62536 13.633 6.61858 13.6461 6.61406C13.7353 6.59144 13.8244 6.58692 13.9136 6.59596C13.9375 6.59144 13.9636 6.58466 13.9875 6.58013C14.1463 6.55299 14.3072 6.56204 14.4681 6.5643C14.5617 6.5643 14.653 6.5643 14.7465 6.5643C14.8379 6.56882 14.9314 6.57335 15.0227 6.57787C15.0662 6.61406 15.1162 6.59823 15.1641 6.59596C15.2532 6.60275 15.3446 6.60727 15.4337 6.61406C15.4555 6.62084 15.4772 6.62763 15.5012 6.63441C15.5599 6.63441 15.6208 6.6231 15.6751 6.65477C15.686 6.65929 15.6969 6.66381 15.7078 6.66833C16.2014 6.76332 16.5429 7.09352 16.8669 7.4712C17.0561 7.32872 17.2736 7.2066 17.4476 7.01662C17.6063 6.84248 17.802 6.72487 18.0413 6.70452C18.063 6.69774 18.0869 6.69095 18.1087 6.6819C18.3392 6.66155 18.5719 6.65477 18.8024 6.68643C18.8916 6.72261 18.9851 6.69774 19.0764 6.70226C19.2461 6.6819 19.4005 6.72714 19.5505 6.80629C19.8876 6.98496 20.253 7.12292 20.4922 7.45085C20.7119 7.75164 20.9141 8.06374 21.0968 8.39167C21.1968 8.57034 21.2969 8.74675 21.3926 8.92541C21.4252 8.98648 21.4578 9.0498 21.4447 9.12669C21.4426 9.1674 21.436 9.20811 21.4708 9.23977C21.9971 9.5564 22.4799 9.92052 22.7518 10.5153C22.7822 10.5832 22.8388 10.599 22.891 10.6329C23.1171 10.7777 23.3542 10.9088 23.5412 11.1101C23.5934 11.1667 23.6456 11.2187 23.6456 11.3046C23.6499 11.3657 23.6478 11.4154 23.6478 11.4652ZM14.9096 12.0419C14.8661 12.0396 14.8226 12.0261 14.7857 12.0645C14.7226 12.069 14.6617 12.0736 14.5986 12.0781C14.5812 12.0826 14.5638 12.0871 14.5464 12.0917C14.3812 12.1233 14.2094 12.1301 14.0375 12.1934C14.342 12.3721 14.7052 12.3947 14.9792 12.6706C14.9988 12.3902 15.1728 12.2228 15.3011 12.0419C15.1684 12.0419 15.0401 12.0419 14.9096 12.0419ZM17.354 10.6261C17.3301 10.6058 17.291 10.5945 17.2866 10.6307C17.2823 10.6714 17.3279 10.6759 17.3606 10.6804C17.7042 10.7709 17.9847 10.9631 18.2196 11.2345C18.2848 11.3091 18.3479 11.386 18.424 11.4494C18.7611 11.7321 19.0634 12.0487 19.3526 12.406C19.3592 12.0962 19.3787 11.7886 19.1982 11.5421C18.9851 11.2503 18.7111 11.0106 18.4523 10.7618C18.3718 10.6827 18.2674 10.6555 18.1565 10.6374C17.8869 10.5922 17.6194 10.6194 17.354 10.6261ZM17.6041 11.9854C17.4824 11.9944 17.3606 12.0035 17.2453 12.0125C17.5867 12.5372 17.4258 13.0347 17.1822 13.5278C17.254 13.5504 17.3323 13.5187 17.3997 13.5594C17.4106 13.564 17.4215 13.5685 17.4302 13.573C17.6215 13.573 17.8129 13.5707 18.0065 13.5707C18.0195 13.5662 18.0326 13.5594 18.0456 13.5549C18.1826 13.5413 18.3088 13.4961 18.4327 13.4396C18.5458 13.3898 18.6567 13.3197 18.7829 13.3242C18.9133 13.3287 18.9242 13.2677 18.8829 13.1591C18.7894 12.9194 18.7176 12.6684 18.6023 12.4422C18.4262 12.0939 18.2566 11.9311 17.8847 11.9673C17.8064 11.974 17.7259 11.9695 17.6455 11.9718C17.6346 11.974 17.6194 11.9786 17.6041 11.9854ZM17.9434 8.97969C18.1761 8.94803 18.3892 8.84173 18.6154 8.78745C19.2178 8.64271 19.8202 8.64045 20.4226 8.80102C20.4357 8.80781 20.4487 8.81459 20.4618 8.82138C20.7314 8.86435 20.9815 8.97064 21.2664 9.1086C21.0424 8.65176 20.801 8.2605 20.5466 7.87377C20.1225 7.22469 19.5353 6.88545 18.7742 6.89223C18.5849 6.89449 18.3957 6.88319 18.2087 6.88997C17.9978 6.89676 17.7977 6.96234 17.6455 7.11839C17.4693 7.29932 17.2779 7.45537 17.0648 7.58428C16.9887 7.62952 16.9713 7.67927 17.0191 7.76973C17.1148 7.95292 17.1909 8.14516 17.1931 8.36001C17.1931 8.45048 17.241 8.49571 17.3105 8.53642C17.5237 8.66307 17.7303 8.80102 17.9151 8.97291C17.9238 8.97743 17.9325 8.97743 17.9434 8.97969ZM13.1937 15.7916C12.8262 15.7758 12.7762 15.8097 12.7392 16.0992C12.7196 16.2507 12.7958 16.3661 12.9002 16.452C13.0741 16.5945 13.2481 16.7483 13.4438 16.8523C14.1093 17.2051 14.7596 17.5873 15.4359 17.9175C15.9448 18.1663 16.4472 18.4151 17.0213 18.4422C17.0344 18.449 17.0452 18.4558 17.0583 18.4626C17.2323 18.4513 17.4019 18.4942 17.5715 18.5146C17.5824 18.5214 17.5911 18.5282 17.602 18.535C17.6933 18.5282 17.7564 18.6073 17.8434 18.6118C17.8521 18.6277 17.8629 18.6322 17.8738 18.6164C18.4066 18.587 18.9351 18.6639 19.4657 18.6684C20.2486 18.6752 21.0294 18.5576 21.8123 18.6118C22.0863 18.6299 22.3233 18.5372 22.5517 18.3834C22.8366 18.1935 22.9975 17.8949 23.1954 17.6326C23.2846 17.515 23.2976 17.3567 23.2433 17.2074C23.2106 17.1192 23.1715 17.0853 23.0802 17.1576C22.9714 17.2458 22.854 17.3205 22.7626 17.429C22.5647 17.6642 22.3059 17.7253 22.0232 17.7343L22.008 17.7276L21.995 17.7389C21.6818 17.7547 21.3665 17.7977 21.0555 17.7841C20.5074 17.7615 19.9594 17.7728 19.4114 17.7502C18.9677 17.7321 18.5219 17.7004 18.0891 17.5806C17.5498 17.4336 17.0039 17.3634 16.445 17.3928C16.3667 17.3974 16.2862 17.3883 16.2079 17.3702C15.7969 17.2798 15.3772 17.2164 14.9879 17.0333C14.4725 16.7913 13.8679 16.7754 13.4177 16.3638C13.3634 16.3141 13.2677 16.2869 13.3264 16.1897C13.3786 16.106 13.4569 16.1354 13.5221 16.1829C13.57 16.2168 13.6135 16.253 13.6613 16.2869C13.8005 16.391 13.9397 16.4905 14.1137 16.5312C14.4138 16.6013 14.703 16.7121 14.9944 16.8184C15.2097 16.8953 15.4142 17.0061 15.6403 17.0513C15.6512 17.0581 15.6643 17.0649 15.6751 17.074C16.1405 17.1689 16.6125 17.1938 17.0865 17.1983C17.2605 17.2006 17.4367 17.2277 17.6128 17.2685C17.9064 17.3363 18.1957 17.4381 18.498 17.4652C19.0416 17.5172 19.5853 17.5625 20.1355 17.5647C20.7814 17.567 21.4252 17.5693 22.0711 17.5376C22.2712 17.5285 22.4343 17.4449 22.5974 17.316C22.9845 17.0106 23.2715 16.6103 23.5956 16.2462C23.8652 15.9432 23.837 15.5632 23.5412 15.3054C23.5064 15.6039 23.3911 15.8685 23.2433 16.115C23.0301 16.4656 22.7953 16.8048 22.3908 16.9292C21.7862 17.1147 21.1599 17.1192 20.5379 17.0966C20.0377 17.0785 19.5375 16.9835 19.0373 16.979C18.3305 16.9722 17.6368 16.8523 16.9474 16.7392C16.1601 16.6103 15.3837 16.409 14.603 16.2372C14.5921 16.2304 14.5812 16.2236 14.5725 16.2168C14.5377 16.2146 14.5008 16.2191 14.4703 16.2078C14.0658 16.0495 13.6483 15.9319 13.2307 15.8165C13.2242 15.8075 13.209 15.7984 13.1937 15.7916ZM17.7411 11.7615C17.4997 11.6687 17.3018 11.5036 17.0952 11.3589C16.793 11.144 16.4602 11.0355 16.097 11.0377C15.6382 11.0423 15.1836 11.0898 14.7378 11.1938C14.305 11.2956 13.894 11.4539 13.6396 11.8836C13.5852 11.9741 13.6069 11.9921 13.6809 12.0351C13.8309 12.1188 13.9397 11.9944 14.068 11.9718C14.7335 11.8587 15.4055 11.7682 16.0796 11.7999C16.6342 11.8248 17.1866 11.8316 17.7411 11.7615ZM23.2802 12.4558C23.315 12.397 23.2868 12.354 23.2541 12.3223C23.1084 12.1844 23.0062 12.0102 22.904 11.8406C22.804 11.6687 22.6583 11.6054 22.4843 11.5715C22.0928 11.4969 21.7014 11.5082 21.3099 11.5692C21.1251 11.5986 21.0054 11.7434 20.8576 11.8384C21.1881 11.8429 21.5078 11.8768 21.8253 11.8972C22.0711 11.9152 22.3168 11.9333 22.5299 12.0849C22.7605 12.25 23.0236 12.345 23.2802 12.4558ZM22.0319 13.4848C22.2407 13.4124 22.406 13.4192 22.5582 13.3491C22.7953 13.2405 22.9627 13.0506 23.1258 12.8493C23.2498 12.6932 23.252 12.6503 23.0693 12.5779C22.8714 12.501 22.6757 12.4196 22.5017 12.2975C22.3603 12.1979 22.2103 12.1527 22.0319 12.1052C22.3342 12.5575 22.4038 12.9986 22.0319 13.4848ZM20.2552 22.2304C20.7032 21.8007 21.1512 21.4208 21.5122 20.9526C21.5448 20.9096 21.6166 20.8554 21.5709 20.8056C21.5317 20.7604 21.4513 20.783 21.3926 20.8079C21.2534 20.8667 21.1468 20.9797 21.0272 21.0679C20.764 21.2579 20.5444 21.5248 20.203 21.5836C20.1725 21.5881 20.1421 21.6039 20.1573 21.6401C20.2269 21.8143 20.1899 22.0133 20.2552 22.2304ZM20.6075 22.7415C20.6597 22.4407 20.8336 22.2575 20.9706 22.0608C21.0576 21.9387 21.162 21.8188 21.3077 21.7645C21.6426 21.6424 21.7905 21.3348 21.9667 21.0544C22.008 20.9888 22.0058 20.9142 21.9297 20.8712C21.8601 20.8305 21.8079 20.8531 21.7623 20.93C21.6579 21.1064 21.5296 21.2647 21.3839 21.4094C21.062 21.7306 20.7488 22.0585 20.4009 22.3503C20.3617 22.3819 20.3095 22.4046 20.3726 22.4701C20.4531 22.5561 20.5292 22.6488 20.6075 22.7415ZM16.6603 12.9646C16.8712 12.9646 17.0126 12.8289 17.0148 12.6254C17.017 12.4987 16.893 12.3924 16.7451 12.3924C16.5581 12.3924 16.3885 12.5485 16.3906 12.7204C16.395 12.8742 16.495 12.9646 16.6603 12.9646ZM20.2399 13.3966C20.1247 13.0483 20.2225 12.743 20.3095 12.4332C20.0877 12.6299 19.8811 12.8335 19.8072 13.1388C19.7832 13.2338 19.818 13.288 19.9028 13.3129C20.0072 13.3401 20.1116 13.3649 20.2399 13.3966ZM21.9297 12.7814C21.9297 12.6118 21.8471 12.5281 21.6644 12.5395C21.5209 12.5462 21.4817 12.6548 21.4795 12.786C21.4795 12.9488 21.5578 13.0347 21.7057 13.0325C21.8492 13.0325 21.9297 12.9398 21.9297 12.7814ZM15.8752 12.311C15.8709 12.2138 15.8056 12.1595 15.7339 12.1572C15.649 12.1527 15.5816 12.2115 15.5794 12.3088C15.5773 12.3924 15.6316 12.4422 15.7078 12.449C15.7947 12.4535 15.8556 12.4038 15.8752 12.311ZM20.9728 12.4377C20.9424 12.3811 20.9185 12.3156 20.8315 12.3223C20.7314 12.3291 20.714 12.4151 20.7119 12.4852C20.7119 12.5485 20.7532 12.6186 20.8315 12.6073C20.9098 12.5937 20.9511 12.5281 20.9728 12.4377ZM15.8078 12.9646C15.8904 12.942 15.9339 12.8877 15.9296 12.7973C15.9252 12.7226 15.8948 12.6684 15.8143 12.6819C15.736 12.6932 15.6773 12.7362 15.6795 12.8312C15.6795 12.9171 15.736 12.9488 15.8078 12.9646ZM20.8663 12.9307C20.788 12.9217 20.7532 12.9714 20.751 13.0438C20.7488 13.1184 20.7923 13.1659 20.8684 13.1637C20.9337 13.1614 20.9706 13.1275 20.9728 13.0528C20.975 12.9759 20.9533 12.9239 20.8663 12.9307ZM23.2911 11.1237C23.2824 11.144 23.2715 11.1599 23.2759 11.1689C23.2781 11.1802 23.2933 11.1893 23.3042 11.2006C23.3107 11.1893 23.3259 11.1757 23.3237 11.1667C23.3237 11.1531 23.3085 11.1418 23.2911 11.1237ZM23.4629 11.3137C23.4542 11.3091 23.4412 11.3001 23.4346 11.3024C23.4281 11.3046 23.4194 11.3227 23.4238 11.3295C23.4259 11.3363 23.4433 11.3453 23.4499 11.3408C23.4564 11.3385 23.4586 11.3227 23.4629 11.3137Z" fill="#080A07"/>
<path d="M11.8934 8.3374C11.9282 8.43465 11.8543 8.54999 11.9347 8.64046C11.9347 13.6748 11.9347 18.7068 11.9347 23.7412C11.9347 23.7954 11.9391 23.8475 11.9391 23.9017C11.9282 23.9176 11.9152 23.9357 11.9043 23.9515C11.8456 23.8927 11.8738 23.8158 11.8738 23.7502C11.8717 18.7656 11.8717 13.7788 11.8738 8.79425C11.8738 8.64046 11.8412 8.48667 11.8934 8.3374Z" fill="#638749"/>
<path d="M23.0389 23.9537C22.9888 23.9763 22.9366 23.965 22.8866 23.9582C22.8845 23.9379 22.8823 23.9153 22.8779 23.8949C23.1128 23.4584 23.5086 23.1667 23.8087 22.789C23.8457 22.7415 23.9001 22.7053 23.9566 22.7573C24.0175 22.8139 23.9914 22.8727 23.9457 22.9269C23.8218 23.0672 23.6913 23.1983 23.5782 23.3476C23.4521 23.5149 23.2672 23.6235 23.1606 23.8112C23.1345 23.8384 23.1019 23.8678 23.1585 23.8972L23.1541 23.9085L23.1519 23.9107C23.115 23.922 23.0693 23.9153 23.0389 23.9537Z" fill="#10190C"/>
<path d="M24.0436 23.9582C24.0175 23.9582 23.9914 23.956 23.9653 23.956C23.9675 23.9446 23.9653 23.9333 23.9609 23.9243C23.9609 23.9152 23.9631 23.9085 23.9631 23.8994C24.011 23.8406 24.0588 23.7841 24.1066 23.7253C24.2393 23.5624 24.3676 23.3973 24.5025 23.239C24.5481 23.1847 24.6134 23.1418 24.6786 23.2141C24.7395 23.282 24.6786 23.325 24.6416 23.3792C24.5329 23.5308 24.3828 23.6461 24.298 23.8157C24.2437 23.922 24.1458 23.9446 24.0436 23.9582Z" fill="#10190C"/>
<path d="M23.478 12.078C23.478 11.931 23.478 11.7863 23.478 11.6393C23.5199 11.7863 23.5106 11.9333 23.478 12.078Z" fill="#13160D"/>
<path d="M14.753 6.57384C14.6595 6.57384 14.5681 6.57384 14.4746 6.57384C14.5681 6.53918 14.6595 6.54149 14.753 6.57384Z" fill="#13160D"/>
<path d="M19.0831 6.71395C18.9918 6.70933 18.9004 6.73475 18.8091 6.69778C18.9004 6.70009 18.9939 6.67699 19.0831 6.71395Z" fill="#13160D"/>
<path d="M15.1726 6.60541C15.1248 6.60541 15.0747 6.62389 15.0312 6.58693C15.0769 6.58693 15.1269 6.57769 15.1726 6.60541Z" fill="#13160D"/>
<path d="M23.5015 12.6073C23.4596 12.5643 23.4782 12.5123 23.4782 12.4625C23.5085 12.5078 23.4992 12.5575 23.5015 12.6073Z" fill="#13160D"/>
<path d="M23.6479 11.4652C23.6479 11.4154 23.6503 11.3657 23.6503 11.3159C23.6805 11.3679 23.6782 11.4177 23.6479 11.4652Z" fill="#13160D"/>
<path d="M23.049 18.5349C23.021 18.5032 23.028 18.4648 23.0303 18.4286C23.0373 18.4625 23.042 18.4987 23.049 18.5349Z" fill="#13160D"/>
<path d="M23.0304 18.8244C23.0304 18.786 23.0211 18.7475 23.056 18.7181C23.063 18.7566 23.056 18.7928 23.0304 18.8244Z" fill="#13160D"/>
<path d="M18.7373 23.9542C18.7656 23.9242 18.8025 23.9311 18.8373 23.9311C18.8156 23.9842 18.7743 23.9588 18.7373 23.9542Z" fill="#13160D"/>
<path d="M21.4792 9.25334C21.442 9.22168 21.449 9.18097 21.4513 9.14026C21.4606 9.17871 21.4699 9.21489 21.4792 9.25334Z" fill="#13160D"/>
<path d="M13.9944 6.58911C13.9704 6.59373 13.9443 6.60066 13.9204 6.60528C13.9443 6.60066 13.9683 6.59373 13.9944 6.58911Z" fill="#13160D"/>
<path d="M18.1153 6.69312C18.0935 6.70005 18.0696 6.70698 18.0479 6.71622C18.0718 6.70929 18.0935 6.70236 18.1153 6.69312Z" fill="#13160D"/>
<path d="M25.624 23.6778C25.617 23.6575 25.61 23.6349 25.603 23.6145C25.6123 23.6349 25.617 23.6552 25.624 23.6778Z" fill="#13160D"/>
<path d="M25.6616 23.9605C25.6638 23.9469 25.6681 23.9356 25.6703 23.922C25.6703 23.913 25.6725 23.9039 25.6725 23.8949C25.7029 23.9243 25.7225 23.9492 25.6616 23.9605Z" fill="#13160D"/>
<path d="M23.478 13.046C23.4827 13.0211 23.4873 12.9963 23.4943 12.9691C23.4897 12.994 23.485 13.0211 23.478 13.046Z" fill="#13160D"/>
<path d="M13.6521 6.62305C13.6386 6.62998 13.6273 6.63691 13.6138 6.64153C13.6273 6.63691 13.6409 6.62998 13.6521 6.62305Z" fill="#13160D"/>
<path d="M23.4458 17.5113C23.4528 17.4974 23.4598 17.4813 23.4644 17.4674C23.4574 17.4813 23.4505 17.4974 23.4458 17.5113Z" fill="#13160D"/>
<path d="M23.4551 17.2467C23.4528 17.2328 23.4481 17.2213 23.4458 17.2074C23.4505 17.2166 23.4574 17.2236 23.4598 17.2328C23.4598 17.2374 23.4574 17.2421 23.4551 17.2467Z" fill="#13160D"/>
<path d="M23.9565 16.0049C23.9612 15.9933 23.9682 15.9818 23.9728 15.9702C23.9682 15.9818 23.9635 15.9933 23.9565 16.0049Z" fill="#13160D"/>
<path d="M19.355 23.9539C19.3666 23.94 19.3759 23.9377 19.3876 23.9539L19.3713 23.9585L19.355 23.9539Z" fill="#13160D"/>
<path d="M18.6219 23.8949C16.4624 23.8949 14.3029 23.8949 12.1433 23.8949C12.0759 23.8949 12.0063 23.8971 11.9389 23.8994C11.9367 23.8451 11.9346 23.7931 11.9346 23.7388C11.9346 18.7045 11.9346 13.6724 11.9346 8.6381C12.1455 8.31469 12.3021 7.95962 12.5174 7.63395C12.7284 7.31733 13.0154 7.13414 13.3221 6.96678C13.8157 6.69765 14.3551 6.7474 14.8814 6.76776C15.1749 6.77906 15.4751 6.7949 15.7621 6.88536C16.4059 7.09117 16.9517 7.74703 16.9887 8.41194C16.6016 8.38254 16.2188 8.32826 15.8339 8.30565C15.2663 8.27398 14.7161 8.35314 14.1854 8.55442C13.9897 8.62905 13.8462 8.79641 13.6852 8.92759C13.5787 9.01579 13.483 9.11756 13.3634 9.19219C13.3112 9.22386 13.2459 9.27361 13.3003 9.34824C13.3503 9.42061 13.4199 9.40705 13.4808 9.35729C13.6287 9.23743 13.7875 9.12661 13.9201 8.99091C14.2159 8.68786 14.5965 8.60418 14.9814 8.54085C15.6512 8.43003 16.3167 8.52954 16.98 8.62001C17.2649 8.65846 17.4932 8.87557 17.7151 9.06102C18.1913 9.46132 18.5045 9.99506 18.7785 10.5537C18.8177 10.6328 18.8525 10.7143 18.8503 10.807C18.8416 10.816 18.8351 10.8228 18.8264 10.8319C18.7459 10.7572 18.6632 10.6848 18.585 10.6102C18.4806 10.5107 18.3566 10.4429 18.2174 10.4361C17.9956 10.4248 17.7781 10.3818 17.5519 10.4157C17.3258 10.4496 17.0953 10.4044 16.8669 10.3999C16.5015 10.3931 16.134 10.3976 15.7708 10.4361C15.4381 10.4723 15.1075 10.4157 14.7791 10.4383C14.342 10.4677 13.9201 10.5718 13.6004 10.9246C13.4395 11.101 13.2764 11.2774 13.1111 11.4493C13.0111 11.5556 12.9611 11.68 12.9545 11.8315C12.9458 12.0938 13.0698 12.2069 13.3134 12.1481C13.346 12.1391 13.3808 12.1323 13.4134 12.1232L13.4286 12.1255L13.4438 12.121C13.707 12.2657 13.9767 12.3924 14.255 12.4987C14.4899 12.5891 14.7313 12.6638 14.9053 12.8718C15.1119 13.1206 15.4055 13.2359 15.6904 13.3196C16.1819 13.4621 16.6647 13.6453 17.1779 13.7177C17.6955 13.79 18.1913 13.7832 18.6676 13.5503C18.7894 13.4915 18.9286 13.5254 19.0438 13.4395C19.0851 13.4101 19.1286 13.4576 19.1569 13.496C19.2004 13.5571 19.1895 13.6295 19.1395 13.6747C18.9177 13.8782 18.6698 14.0705 18.3697 14.0592C17.9478 14.0433 17.5259 14.0501 17.104 13.9936C16.669 13.9348 16.2254 13.9302 15.7926 13.8511C15.4446 13.7878 15.1206 13.6724 14.8661 13.3942C14.7248 13.2405 14.566 13.1025 14.4138 12.96C14.3703 12.9193 14.3203 12.8922 14.2616 12.8831C14.2115 12.8741 14.1702 12.8944 14.1485 12.9419C14.1289 12.9872 14.1463 13.0279 14.1811 13.0527C14.4638 13.2405 14.6726 13.5141 14.9357 13.7244C15.2815 13.9981 15.6969 14.0614 16.1144 14.0976C16.7277 14.1519 17.3388 14.2514 17.9586 14.2446C18.0826 14.2423 18.2066 14.2695 18.3501 14.2853C18.0456 14.6585 17.7433 15.0158 17.2866 15.1606C16.9691 15.2601 16.6625 15.3867 16.3537 15.5111C16.271 15.5428 16.1927 15.5676 16.1057 15.5654C16.034 15.5631 15.9557 15.5699 15.9579 15.6672C15.96 15.778 16.0514 15.7463 16.1144 15.7531C16.2797 15.7712 16.432 15.7124 16.5777 15.6445C16.8234 15.5292 17.08 15.4478 17.3345 15.3618C17.7129 15.2307 18.0239 14.9955 18.274 14.6721C18.5175 14.3554 18.8264 14.127 19.1613 13.9302C19.2852 13.8579 19.3657 13.7516 19.3679 13.5865C19.37 13.444 19.3222 13.3422 19.2091 13.2744C19.1308 13.2269 19.0917 13.1658 19.0612 13.0754C18.9829 12.8402 18.8894 12.6095 18.7981 12.3788C18.6915 12.1074 18.498 11.8993 18.2544 11.7817C17.7868 11.5556 17.3475 11.2819 16.906 11.0128C16.7212 10.8997 16.5124 10.8567 16.2993 10.8477C15.6382 10.8228 14.9901 10.8907 14.3529 11.0919C13.9897 11.2073 13.7135 11.4221 13.496 11.7388C13.4373 11.8247 13.3938 11.9287 13.2786 11.9536C13.1851 11.9762 13.1285 11.9468 13.1459 11.8383C13.1568 11.7568 13.1764 11.6754 13.2351 11.6121C13.4438 11.3905 13.6309 11.1462 13.8592 10.9517C14.1115 10.7369 14.4334 10.6351 14.7552 10.6464C15.3511 10.6668 15.9426 10.6193 16.5363 10.617C16.8147 10.617 17.0583 10.7798 17.3193 10.8635C17.6824 10.9789 17.9499 11.2208 18.2066 11.5058C18.4197 11.741 18.6719 11.9423 18.8981 12.1707C19.1069 12.3833 19.2526 12.6185 19.2831 12.9216C19.2917 13.003 19.2983 13.0889 19.407 13.0663C19.5049 13.046 19.4766 12.96 19.4679 12.8922C19.457 12.8153 19.4375 12.7406 19.4309 12.6638C19.4244 12.5959 19.3526 12.4987 19.4984 12.4873C19.5331 12.4851 19.5375 12.4308 19.5375 12.3969C19.5418 12.0825 19.5636 11.7614 19.394 11.4809C19.307 11.3362 19.183 11.2186 19.0743 11.0874C19.0504 11.058 19.0156 11.0354 19.0308 10.9811C19.1112 10.6984 18.9742 10.4745 18.8481 10.2461C18.648 9.8865 18.461 9.51786 18.1609 9.22838C18.0978 9.16732 18.1348 9.14922 18.1957 9.12661C18.9025 8.85974 19.618 8.8032 20.353 8.98186C21.0816 9.15827 21.6905 9.55179 22.2277 10.0742C22.3538 10.1986 22.4604 10.3479 22.5539 10.5424C22.0994 10.47 21.6688 10.4949 21.2403 10.5559C21.2316 10.5605 21.2208 10.5627 21.2121 10.5672C21.0229 10.565 20.8554 10.6396 20.6901 10.7233C20.6227 10.7572 20.5531 10.8115 20.6009 10.9042C20.6488 10.9947 20.7119 10.9381 20.7749 10.9087C21.3056 10.6622 21.8645 10.6939 22.4256 10.7278C22.7431 10.7459 22.9997 10.8997 23.2259 11.1191C23.2085 11.1191 23.1933 11.1213 23.1759 11.1213C22.9606 10.9721 22.7105 10.9743 22.4669 10.9472C22.0058 10.8974 21.5448 10.8545 21.0859 10.9585C20.651 11.058 20.3074 11.3181 20.0138 11.6573C19.9659 11.7116 19.9659 11.7636 20.0138 11.8157C20.0725 11.879 20.1182 11.8337 20.1573 11.7885C20.3226 11.5963 20.514 11.4402 20.7314 11.3158C21.1881 11.0535 21.6818 11.0942 22.1733 11.1191C22.3603 11.1281 22.5474 11.1575 22.7366 11.1779C23.1411 11.2186 23.315 11.4131 23.3129 11.8292C23.3129 11.8925 23.3063 11.9536 23.302 12.0712C23.2063 11.931 23.1324 11.836 23.0736 11.732C22.9627 11.542 22.8083 11.4334 22.5974 11.3882C22.1472 11.291 21.6992 11.3113 21.249 11.3656C21.1664 11.3746 21.099 11.4221 21.0316 11.4674C20.7162 11.6732 20.4139 11.8812 20.2051 12.225C20.0768 12.4353 19.8572 12.5846 19.7376 12.813C19.6963 12.8922 19.6484 12.9645 19.6375 13.0573C19.594 13.3739 19.6354 13.4508 19.9355 13.5186C20.7532 13.7041 21.5752 13.7335 22.4038 13.6068C22.7192 13.5593 22.9562 13.3603 23.1628 13.1229C23.1976 13.0821 23.228 13.0414 23.2628 13.0007C23.2694 12.9939 23.2824 12.9939 23.2933 12.9894C23.3259 13.496 22.7822 14.0411 22.2994 13.9868C22.232 13.98 22.1624 13.9777 22.095 13.9823C22.0363 13.9845 22.0015 14.0252 22.0015 14.0886C22.0015 14.1564 22.0385 14.1835 22.0994 14.1835C22.2646 14.1835 22.4299 14.1835 22.6126 14.1835C22.5582 14.3396 22.4495 14.4007 22.319 14.421C22.2233 14.4368 22.1255 14.4368 22.0276 14.4391C21.9493 14.4391 21.8601 14.4391 21.8536 14.5386C21.8493 14.6404 21.9406 14.6449 22.0167 14.6472C22.3603 14.6562 22.667 14.5884 22.8453 14.2265C23.0323 14.3894 23.1759 14.5725 23.2868 14.7829C23.3803 14.9615 23.4042 15.1538 23.3498 15.3528C23.1911 15.9453 22.9345 16.4587 22.3647 16.7301C22.1929 16.8115 22.0015 16.8409 21.8145 16.859C21.0598 16.9337 20.3074 16.8862 19.5549 16.8183C19.2309 16.7889 18.9025 16.7957 18.5806 16.7595C17.8434 16.6781 17.1061 16.5854 16.3798 16.4203C15.8122 16.2914 15.238 16.1828 14.6704 16.0426C14.3333 15.9589 14.0071 15.8255 13.6722 15.7282C13.4373 15.6581 13.1981 15.5925 12.9524 15.579C12.8045 15.5699 12.7066 15.6378 12.637 15.7757C12.4717 16.1082 12.5435 16.4338 12.8284 16.66C13.4917 17.187 14.2529 17.5307 14.9901 17.9174C15.2511 18.0531 15.5229 18.1662 15.7774 18.3132C16.2362 18.5824 16.7473 18.6027 17.2497 18.6796C17.3388 18.6932 17.4367 18.6887 17.5193 18.7226C17.7933 18.8402 18.0782 18.8198 18.3631 18.8266C18.9525 18.8379 19.5397 18.8945 20.129 18.8583C20.3856 18.8424 20.6423 18.8198 20.8989 18.8017C21.0881 18.7882 21.2751 18.795 21.4643 18.8153C21.9623 18.8673 22.4386 18.8221 22.8366 18.4127C22.9214 18.7588 22.8192 19.0256 22.6561 19.2767C22.6409 19.3015 22.6191 19.3219 22.5995 19.3445C22.369 19.6272 22.356 19.6408 22.1015 19.3717C21.8471 19.1025 21.5274 19.1184 21.186 19.2699C20.7032 19.4847 20.3117 19.8285 19.9529 20.213C19.7658 20.4143 19.4962 20.4844 19.3157 20.6902C19.2787 20.7331 19.2591 20.6856 19.2374 20.6608C18.9503 20.3283 18.3979 20.4844 18.1913 20.8643C18.1848 20.8756 18.1783 20.8869 18.1718 20.8982C18.0935 21.2081 18.2044 21.4682 18.4132 21.6672C18.6437 21.8866 18.8024 22.158 18.9764 22.4203C19.0264 22.4949 19.0525 22.5763 19.0525 22.6691C19.0504 22.8704 19.0525 23.0716 19.0525 23.2729C19.0525 23.3068 19.0482 23.3476 19.0286 23.3724C18.8916 23.5443 18.7568 23.7185 18.6219 23.8949ZM20.801 14.3554C21.0163 14.3486 21.236 14.3848 21.4469 14.3147C21.51 14.2944 21.5665 14.2537 21.5491 14.1722C21.5296 14.0795 21.4556 14.0976 21.3969 14.1134C21.1294 14.1768 20.8663 14.1609 20.6009 14.0886C20.4074 14.0365 20.2182 13.9732 20.0355 13.8895C19.9768 13.8624 19.9246 13.8466 19.8855 13.9122C19.842 13.9845 19.8789 14.0365 19.9398 14.0727C19.9746 14.0931 20.0094 14.1134 20.0464 14.1293C20.3683 14.2808 20.6488 14.4821 20.8619 14.7829C20.9924 14.9683 21.1773 15.1108 21.2708 15.3279C21.2969 15.389 21.3491 15.4206 21.4121 15.389C21.4708 15.3596 21.4665 15.2963 21.4448 15.2488C21.41 15.1673 21.3686 15.0882 21.3186 15.0181C21.1533 14.7919 20.9446 14.6042 20.7902 14.3667L20.801 14.3554ZM13.4047 15.1787C13.4047 15.1809 13.4047 15.1832 13.4047 15.1854C13.359 15.1854 13.3134 15.1809 13.2677 15.1854C12.8371 15.2329 12.4282 15.3257 12.1738 15.7463C12.1325 15.8142 12.0846 15.8843 12.1738 15.9453C12.2543 15.9996 12.3021 15.934 12.3369 15.8707C12.4891 15.588 12.7479 15.493 13.0285 15.432C13.2155 15.3912 13.4025 15.3867 13.5917 15.389C13.6613 15.3912 13.7244 15.3777 13.7244 15.2895C13.7244 15.2058 13.6657 15.1809 13.5961 15.1809C13.5308 15.1764 13.4678 15.1787 13.4047 15.1787ZM13.309 14.5431C13.1068 14.5771 12.8915 14.5771 12.6979 14.6834C12.6348 14.7173 12.6 14.7738 12.6261 14.8439C12.6544 14.9186 12.7218 14.9095 12.7718 14.8801C12.9437 14.7783 13.135 14.7897 13.3199 14.7557C13.3938 14.7422 13.483 14.7512 13.4721 14.6381C13.4634 14.5454 13.383 14.5477 13.309 14.5431Z" fill="#4A833D"/>
<path d="M14.6095 16.2349C15.3903 16.4045 16.1666 16.608 16.9539 16.737C17.6455 16.85 18.3392 16.9699 19.0438 16.9767C19.544 16.9812 20.0442 17.0762 20.5444 17.0943C21.1664 17.1169 21.7927 17.1124 22.3973 16.9269C22.8018 16.8025 23.0367 16.4633 23.2498 16.1128C23.3999 15.8662 23.5129 15.6016 23.5477 15.3031C23.8435 15.5609 23.8718 15.9386 23.6021 16.2439C23.2781 16.608 22.991 17.0106 22.6039 17.3137C22.4408 17.4403 22.2777 17.5263 22.0776 17.5353C21.4317 17.567 20.788 17.5647 20.1421 17.5624C19.5919 17.5602 19.0482 17.5149 18.5045 17.4629C18.2022 17.4335 17.913 17.334 17.6194 17.2662C17.4454 17.2255 17.2671 17.1983 17.0931 17.1961C16.619 17.1915 16.1471 17.1689 15.6817 17.0717C15.6708 17.0649 15.6577 17.0581 15.6469 17.0491C15.4207 17.0038 15.2163 16.893 15.001 16.8161C14.7096 16.7121 14.4203 16.6013 14.1202 16.5289C13.9462 16.4882 13.807 16.3887 13.6678 16.2846C13.6222 16.2507 13.5765 16.2123 13.5287 16.1806C13.4612 16.1354 13.383 16.106 13.3329 16.1874C13.2742 16.2846 13.3699 16.3118 13.4243 16.3615C13.8745 16.7731 14.479 16.789 14.9944 17.031C15.3837 17.2142 15.8013 17.2752 16.2145 17.3679C16.2949 17.386 16.3732 17.3928 16.4515 17.3906C17.0104 17.3612 17.5563 17.4313 18.0956 17.5783C18.5284 17.6959 18.9742 17.7275 19.4179 17.7479C19.9659 17.7705 20.514 17.7592 21.062 17.7818C21.3752 17.7954 21.6883 17.7524 22.0015 17.7366L22.0167 17.7388L22.0298 17.7321C22.3125 17.723 22.5713 17.662 22.7692 17.4267C22.8605 17.3182 22.978 17.2436 23.0867 17.1554C23.178 17.0807 23.2172 17.1169 23.2498 17.2051C23.3042 17.3544 23.2911 17.5127 23.202 17.6303C23.0041 17.8926 22.8409 18.1912 22.5582 18.3811C22.3299 18.5349 22.0907 18.6277 21.8188 18.6096C21.0337 18.5575 20.253 18.6729 19.4723 18.6661C18.9416 18.6616 18.4132 18.5847 17.8803 18.6141C17.8695 18.6096 17.8608 18.6073 17.8499 18.6096C17.7629 18.605 17.6977 18.5259 17.6085 18.5327C17.5976 18.5259 17.5889 18.5191 17.578 18.5123C17.4062 18.492 17.2388 18.449 17.0648 18.4603C17.0518 18.4535 17.0409 18.4467 17.0278 18.4399C16.4537 18.4128 15.9513 18.164 15.4424 17.9152C14.7661 17.5851 14.1158 17.2028 13.4504 16.85C13.2546 16.746 13.0807 16.5922 12.9067 16.4497C12.8023 16.3638 12.7262 16.2485 12.7458 16.0969C12.7827 15.8074 12.8327 15.7735 13.2003 15.7893C13.2155 15.7961 13.2307 15.8029 13.2459 15.812C13.6635 15.9273 14.0811 16.0449 14.4856 16.2032C14.516 16.2145 14.553 16.21 14.5878 16.2123C14.5899 16.2236 14.6008 16.2281 14.6095 16.2349Z" fill="#984321"/>
<path d="M22.2692 23.8972C22.2496 23.895 22.2279 23.8927 22.2083 23.8882C21.9452 23.6009 22.0061 23.4833 22.1974 23.1441C22.3692 22.841 22.5432 22.5267 22.8673 22.3548C22.9303 22.3209 23.0064 22.2553 22.9412 22.1694C22.889 22.0992 22.8238 22.1513 22.7585 22.1874C22.3779 22.4046 22.1822 22.7845 21.9669 23.1464C21.9169 23.2278 21.9299 23.3657 21.819 23.3906C21.6798 23.42 21.5298 23.4245 21.3993 23.3567C21.1862 23.2436 21.0165 23.0763 20.8926 22.8637C20.823 22.7438 20.8382 22.6375 20.9013 22.5018C21.1144 22.0314 21.5515 21.8753 21.9365 21.6469C22.2648 21.4524 22.5323 21.1765 22.8238 20.9323C22.8303 20.9209 22.8368 20.9096 22.8455 20.8983C22.8281 20.7581 22.7542 20.7649 22.6694 20.8305C22.5106 20.9549 22.3388 21.0657 22.1974 21.2127C22.1605 21.2511 22.117 21.2851 22.0648 21.3099C22.1365 21.2036 22.1496 21.068 22.2366 20.9707C22.2909 20.9096 22.254 20.8531 22.2018 20.8033C21.9321 20.5546 21.3754 20.5342 21.0883 20.7626C20.8295 20.9684 20.5925 21.2082 20.2924 21.3439C20.0618 21.4479 19.8183 21.4275 19.5943 21.319C19.3681 21.2104 19.3572 20.8576 19.5682 20.7174C19.6921 20.636 19.803 20.5749 19.9553 20.688C20.188 20.8621 20.201 20.9074 19.9988 21.1154C19.9509 21.1629 19.8726 21.2104 19.94 21.2896C20.0075 21.3687 20.0727 21.3122 20.1336 21.2625C20.4228 21.0318 20.4228 20.7966 20.1336 20.5704C20.0836 20.532 20.0336 20.498 19.977 20.4573C20.3815 20.0389 20.7904 19.6522 21.3167 19.4192C21.5624 19.3107 21.7821 19.3333 21.98 19.5255C22.1409 19.6816 22.3301 19.8037 22.4345 20.0208C22.5302 20.2176 22.7368 20.2877 22.9108 20.3827C23.4501 20.679 23.9155 21.0589 24.2569 21.5926C24.3439 21.7306 24.4831 21.8324 24.5657 21.9726C24.8811 22.5154 25.2073 23.0514 25.4248 23.6462C25.4465 23.705 25.4465 23.7751 25.4552 23.8384C25.4248 23.8927 25.3726 23.895 25.3204 23.895C25.0246 23.895 24.7267 23.895 24.4309 23.895C24.3722 23.895 24.3135 23.8995 24.3026 23.8158C24.3874 23.6462 24.5396 23.5308 24.6462 23.3793C24.6832 23.3273 24.7441 23.2843 24.6832 23.2142C24.6179 23.1418 24.5527 23.1871 24.507 23.2391C24.3722 23.3974 24.2439 23.5625 24.1112 23.7253C24.0634 23.7841 24.0155 23.8407 23.9677 23.8995C23.698 23.8972 23.4305 23.8791 23.1608 23.9108L23.1652 23.8995C23.1652 23.8701 23.1652 23.8429 23.1652 23.8135C23.2718 23.6281 23.4566 23.5195 23.5827 23.3499C23.6937 23.2006 23.8263 23.0695 23.9503 22.9293C23.9981 22.875 24.022 22.8162 23.9612 22.7596C23.9046 22.7076 23.8502 22.7415 23.8133 22.7913C23.5132 23.169 23.1195 23.4607 22.8825 23.8972C22.6759 23.8972 22.4714 23.8972 22.2692 23.8972Z" fill="#4B833D"/>
<path d="M20.4228 8.80094C19.8226 8.64037 19.218 8.64263 18.6156 8.78737C18.3895 8.84165 18.1763 8.95021 17.9436 8.97961C17.9349 8.97509 17.9241 8.97283 17.9132 8.97509C17.7305 8.80321 17.5239 8.66525 17.3086 8.5386C17.239 8.49789 17.1912 8.4504 17.1912 8.36219C17.189 8.14734 17.1129 7.95511 17.0172 7.77192C16.9693 7.68145 16.9889 7.6317 17.065 7.5842C17.276 7.45303 17.4674 7.29698 17.6457 7.11831C17.7979 6.96452 17.998 6.89894 18.2089 6.88989C18.3982 6.88311 18.5852 6.89442 18.7744 6.89215C19.5355 6.88537 20.1227 7.22687 20.5468 7.87369C20.7991 8.25816 21.0426 8.65168 21.2666 9.10852C20.9839 8.97056 20.7338 8.86427 20.462 8.8213C20.4489 8.81451 20.4359 8.80773 20.4228 8.80094Z" fill="#4B833D"/>
<path d="M21.9037 23.8474C21.8537 23.922 21.7798 23.8949 21.7145 23.8949C20.9729 23.8972 20.2292 23.8972 19.4876 23.8972C19.3375 23.7366 19.2853 23.533 19.244 23.3227C19.2462 23.3114 19.2462 23.3001 19.2397 23.2888C19.2418 23.1214 19.244 22.9563 19.2484 22.789C19.2527 22.5673 19.1853 22.3774 19.0657 22.1897C18.9135 21.9499 18.7504 21.726 18.5481 21.5315C18.4959 21.4795 18.4611 21.4071 18.4198 21.3438C18.3328 21.2013 18.2741 21.0566 18.3915 20.9005C18.5242 20.7219 18.7438 20.6314 18.9222 20.6925C19.1005 20.7535 19.1984 20.8847 19.2179 21.0837C19.244 21.3642 19.418 21.5338 19.7442 21.57C19.9225 21.5903 20.0117 21.6853 20.0052 21.8504C19.9834 22.3502 20.2357 22.6827 20.5967 22.9473C20.8077 23.1011 20.9708 23.3114 21.1861 23.4607C21.3187 23.5511 21.4644 23.6235 21.6188 23.6032C21.8124 23.5783 21.8863 23.6687 21.9037 23.8474Z" fill="#4B833D"/>
<path d="M17.7414 11.7614C17.1868 11.8316 16.6344 11.8248 16.0799 11.7999C15.4057 11.7705 14.7337 11.861 14.0682 11.9718C13.9399 11.9944 13.8312 12.1188 13.6811 12.0351C13.605 11.9921 13.5854 11.9718 13.6398 11.8836C13.8942 11.4561 14.3031 11.2956 14.738 11.1938C15.1839 11.0897 15.6406 11.0423 16.0973 11.0377C16.4626 11.0332 16.7954 11.144 17.0955 11.3589C17.3021 11.5059 17.5 11.6687 17.7414 11.7614Z" fill="#4B833D"/>
<path d="M18.0064 13.5707C17.815 13.5707 17.6236 13.573 17.4301 13.573C17.4192 13.5684 17.4083 13.5639 17.3996 13.5594C17.3322 13.5164 17.2539 13.5503 17.1821 13.5277C17.4257 13.0347 17.5866 12.5371 17.2452 12.0125C17.3605 12.0034 17.4822 11.9944 17.604 11.9853C17.6193 11.9808 17.6323 11.9763 17.6475 11.9717C17.728 11.9717 17.8085 11.974 17.8867 11.9672C18.2586 11.931 18.4283 12.0939 18.6044 12.4422C18.7197 12.6683 18.7914 12.9194 18.885 13.1591C18.9263 13.2676 18.9154 13.3264 18.7849 13.3242C18.6566 13.3219 18.5457 13.3898 18.4348 13.4395C18.3086 13.4961 18.1825 13.5413 18.0477 13.5549C18.0325 13.5594 18.0194 13.5639 18.0064 13.5707Z" fill="#FAFAFA"/>
<path d="M17.354 10.6261C17.6215 10.6194 17.8868 10.5922 18.1543 10.6352C18.2652 10.6533 18.3696 10.6804 18.4501 10.7596C18.7089 11.0106 18.9829 11.2481 19.196 11.5398C19.3765 11.7863 19.3548 12.0939 19.3504 12.4038C19.0612 12.0464 18.7589 11.7298 18.4218 11.4471C18.3479 11.3838 18.2826 11.3069 18.2174 11.2323C17.9825 10.9609 17.702 10.7664 17.3584 10.6782C17.3584 10.6623 17.3562 10.6442 17.354 10.6261Z" fill="#4C833C"/>
<path d="M23.2801 12.4558C23.0235 12.345 22.7625 12.25 22.5298 12.0849C22.3167 11.9333 22.0709 11.9152 21.8252 11.8972C21.5055 11.8745 21.188 11.8429 20.8574 11.8384C21.0075 11.7434 21.1249 11.5986 21.3098 11.5692C21.7012 11.5082 22.0927 11.4968 22.4841 11.5715C22.6581 11.6054 22.8038 11.671 22.9039 11.8406C23.0039 12.0125 23.1083 12.1844 23.254 12.3223C23.2866 12.354 23.3127 12.397 23.2801 12.4558Z" fill="#4C833C"/>
<path d="M22.0322 13.4848C22.4041 12.9986 22.3345 12.5575 22.0322 12.1052C22.2106 12.1527 22.3628 12.198 22.502 12.2975C22.6738 12.4196 22.8717 12.501 23.0696 12.5779C23.2523 12.648 23.2501 12.6932 23.1261 12.8493C22.9652 13.0528 22.7956 13.2405 22.5585 13.3491C22.4063 13.4192 22.241 13.4124 22.0322 13.4848Z" fill="#F7F6F6"/>
<path d="M20.2552 22.2304C20.1899 22.0132 20.2269 21.8165 20.1551 21.6378C20.1421 21.6016 20.1703 21.5858 20.2008 21.5813C20.5422 21.5225 20.7619 21.2556 21.025 21.0656C21.1468 20.9774 21.2512 20.8666 21.3904 20.8056C21.4513 20.7807 21.5296 20.7581 21.5687 20.8033C21.6144 20.8553 21.5426 20.9096 21.51 20.9503C21.1512 21.4207 20.7032 21.7984 20.2552 22.2304Z" fill="#4C833C"/>
<path d="M20.6075 22.7415C20.5292 22.651 20.4553 22.556 20.3727 22.4701C20.3096 22.4045 20.364 22.3819 20.4009 22.3502C20.7467 22.0584 21.0621 21.7305 21.3839 21.4094C21.5296 21.2646 21.6558 21.1063 21.7623 20.9299C21.808 20.853 21.858 20.8327 21.9298 20.8711C22.0059 20.9141 22.0081 20.9887 21.9668 21.0543C21.7906 21.3347 21.6427 21.6423 21.3078 21.7644C21.1621 21.8187 21.0577 21.9363 20.9707 22.0607C20.8315 22.2575 20.6597 22.4384 20.6075 22.7415Z" fill="#4B833D"/>
<path d="M14.5985 12.0781C14.6615 12.0735 14.7224 12.069 14.7855 12.0645C14.829 12.0735 14.8725 12.0735 14.9095 12.0419C15.0399 12.0419 15.1682 12.0419 15.3031 12.0419C15.1748 12.2228 15.0008 12.3924 14.9812 12.6706C14.7072 12.3947 14.344 12.3721 14.0396 12.1934C14.2114 12.1301 14.3832 12.1233 14.5484 12.0916C14.5637 12.0894 14.5811 12.0848 14.5985 12.0781Z" fill="#F4F3F3"/>
<path d="M16.6604 12.9646C16.4951 12.9646 16.3951 12.8742 16.3907 12.7204C16.3864 12.5485 16.556 12.3925 16.7452 12.3925C16.8931 12.3925 17.0149 12.4988 17.0149 12.6254C17.0127 12.8289 16.8713 12.9646 16.6604 12.9646Z" fill="#F4F3F3"/>
<path d="M20.2402 13.3965C20.1119 13.3649 20.0075 13.34 19.9053 13.3129C19.8205 13.2903 19.7857 13.236 19.8096 13.1387C19.8836 12.8334 20.0902 12.6299 20.312 12.4331C20.225 12.7429 20.125 13.0483 20.2402 13.3965Z" fill="#EFEEEE"/>
<path d="M21.9297 12.7814C21.9297 12.9397 21.847 13.0324 21.7057 13.0324C21.5578 13.0324 21.4795 12.9464 21.4795 12.7859C21.4795 12.6547 21.5186 12.5461 21.6643 12.5394C21.847 12.5303 21.9318 12.614 21.9297 12.7814Z" fill="#F4F3F3"/>
<path d="M15.8752 12.311C15.8556 12.4037 15.7947 12.4535 15.7055 12.449C15.6294 12.4444 15.575 12.3947 15.5772 12.3088C15.5816 12.2115 15.649 12.1527 15.7316 12.1572C15.8056 12.1595 15.8708 12.2138 15.8752 12.311Z" fill="#EFEEEE"/>
<path d="M20.9731 12.4376C20.9514 12.5303 20.9122 12.5959 20.8296 12.6072C20.7513 12.6185 20.71 12.5462 20.71 12.4851C20.71 12.415 20.7274 12.329 20.8296 12.3223C20.9166 12.3155 20.9427 12.3811 20.9731 12.4376Z" fill="#EFEEEE"/>
<path d="M15.8078 12.9646C15.736 12.9488 15.6795 12.9194 15.6773 12.8312C15.6751 12.7362 15.7338 12.6932 15.8121 12.6819C15.8926 12.6683 15.9231 12.7226 15.9274 12.7972C15.9339 12.8877 15.8926 12.9397 15.8078 12.9646Z" fill="#F4F3F3"/>
<path d="M20.8662 12.9307C20.9532 12.9262 20.975 12.9759 20.9728 13.0528C20.9706 13.1252 20.9337 13.1614 20.8684 13.1636C20.7923 13.1659 20.751 13.1207 20.751 13.0438C20.751 12.9691 20.7879 12.9194 20.8662 12.9307Z" fill="#EFEEEE"/>
<path d="M17.3542 10.6261C17.3564 10.6442 17.3585 10.6623 17.3607 10.6804C17.3259 10.6781 17.2802 10.6713 17.2868 10.6306C17.2889 10.5967 17.3281 10.608 17.3542 10.6261Z" fill="#13160D"/>
<path d="M23.2914 11.1237C23.3066 11.1418 23.3218 11.1531 23.324 11.1666C23.3262 11.1757 23.311 11.1892 23.3044 11.2006C23.2936 11.1892 23.2783 11.1802 23.2762 11.1689C23.274 11.1598 23.2849 11.144 23.2914 11.1237Z" fill="#13160D"/>
<path d="M23.4629 11.3139C23.4586 11.3231 23.4564 11.3393 23.4499 11.3439C23.4433 11.3462 23.4259 11.3393 23.4238 11.3324C23.4216 11.3254 23.4281 11.307 23.4346 11.3047C23.4412 11.2977 23.4542 11.3093 23.4629 11.3139Z" fill="#13160D"/>
<path d="M14.9096 12.042C14.8726 12.0766 14.8313 12.0743 14.7856 12.0651C14.8226 12.0281 14.8661 12.0397 14.9096 12.042Z" fill="#13160D"/>
<path d="M23.1714 11.126C23.1888 11.126 23.204 11.1237 23.2214 11.1237C23.2062 11.1583 23.1888 11.1375 23.1714 11.126Z" fill="#13160D"/>
<path d="M22.0317 17.7345L22.0178 17.7414L22.0015 17.7391L22.0154 17.7275L22.0317 17.7345Z" fill="#13160D"/>
<path d="M22.847 20.896C22.84 20.9075 22.833 20.9191 22.8237 20.9307C22.8307 20.9214 22.84 20.9099 22.847 20.896Z" fill="#13160D"/>
<path d="M19.2422 23.2888C19.2492 23.3004 19.2492 23.3096 19.2469 23.3235C19.2422 23.3165 19.2375 23.3096 19.2329 23.3004C19.2306 23.2981 19.2375 23.2934 19.2422 23.2888Z" fill="#13160D"/>
<path d="M13.4462 12.13L13.4299 12.1346L13.4136 12.1323C13.4252 12.13 13.4369 12.13 13.4462 12.13Z" fill="#13160D"/>
<path d="M14.5986 12.078C14.5812 12.0826 14.5638 12.0872 14.5464 12.0919C14.5638 12.0896 14.5812 12.0849 14.5986 12.078Z" fill="#13160D"/>
<path d="M18.0063 13.5711C18.0194 13.5665 18.0324 13.5596 18.0455 13.5549C18.0324 13.5596 18.0194 13.5642 18.0063 13.5711Z" fill="#13160D"/>
<path d="M15.6489 17.0491C15.6602 17.056 15.6738 17.0629 15.685 17.0722C15.6715 17.0652 15.6602 17.056 15.6489 17.0491Z" fill="#13160D"/>
<path d="M21.2075 10.5721C21.2168 10.5675 21.2285 10.5629 21.2378 10.5605C21.2285 10.5675 21.2192 10.5721 21.2075 10.5721Z" fill="#13160D"/>
<path d="M14.6117 16.2353C14.6001 16.2283 14.5884 16.2214 14.5791 16.2145C14.5907 16.2237 14.6024 16.2283 14.6117 16.2353Z" fill="#13160D"/>
<path d="M17.8433 18.6141C17.8549 18.6118 17.8665 18.6141 17.8758 18.6187C17.8642 18.6349 17.8526 18.6302 17.8433 18.6141Z" fill="#13160D"/>
<path d="M17.9131 8.97515C17.9247 8.97284 17.934 8.97515 17.9457 8.97977C17.934 8.97746 17.9247 8.97746 17.9131 8.97515Z" fill="#13160D"/>
<path d="M17.6475 11.9695C17.6323 11.9741 17.6192 11.9787 17.604 11.9833C17.6192 11.9787 17.6344 11.9741 17.6475 11.9695Z" fill="#13160D"/>
<path d="M13.2395 15.8147C13.2243 15.8078 13.2091 15.8009 13.1938 15.7916C13.2091 15.7986 13.2243 15.8078 13.2395 15.8147Z" fill="#13160D"/>
<path d="M18.851 10.8115C18.8555 10.8208 18.8668 10.8346 18.8645 10.8392C18.8533 10.86 18.8397 10.8485 18.8262 10.8369C18.8352 10.8277 18.842 10.8208 18.851 10.8115Z" fill="#4A833D"/>
<path d="M23.164 23.8135C23.164 23.8429 23.164 23.87 23.164 23.8994C23.1031 23.87 23.137 23.8406 23.164 23.8135Z" fill="#638749"/>
<path d="M20.7903 14.3646C20.9447 14.602 21.1514 14.792 21.3188 15.0159C21.371 15.086 21.4101 15.1652 21.4449 15.2466C21.4667 15.2941 21.471 15.3574 21.4123 15.3868C21.3493 15.4185 21.2971 15.3868 21.271 15.3258C21.1774 15.1086 20.9948 14.9662 20.8621 14.7807C20.6468 14.4777 20.3663 14.2786 20.0466 14.1271C20.0096 14.109 19.9748 14.0909 19.94 14.0706C19.8791 14.0344 19.8422 13.9846 19.8856 13.91C19.9248 13.8444 19.977 13.8625 20.0357 13.8874C20.2184 13.9711 20.4076 14.0344 20.6011 14.0864C20.8643 14.1588 21.1274 14.1746 21.3971 14.1113C21.4558 14.0977 21.5298 14.0774 21.5493 14.1701C21.5667 14.2515 21.5102 14.2899 21.4471 14.3126C21.2362 14.3827 21.0165 14.3465 20.8012 14.3533C20.7947 14.3487 20.7882 14.3465 20.7795 14.342C20.7816 14.351 20.786 14.3578 20.7903 14.3646Z" fill="#10190C"/>
<path d="M13.4047 15.1787C13.4677 15.1787 13.5308 15.1787 13.5939 15.1787C13.6635 15.1787 13.7222 15.2059 13.7222 15.2873C13.7222 15.3755 13.6613 15.389 13.5895 15.3868C13.4003 15.3823 13.2133 15.389 13.0263 15.4297C12.7457 15.4908 12.4869 15.5858 12.3347 15.8685C12.3021 15.9318 12.252 15.9997 12.1716 15.9431C12.0824 15.8821 12.1303 15.812 12.1716 15.7441C12.426 15.3257 12.8349 15.233 13.2655 15.1832C13.3111 15.1787 13.3568 15.1832 13.4025 15.1832C13.4047 15.181 13.4047 15.181 13.4047 15.1787Z" fill="#10190C"/>
<path d="M13.3093 14.5432C13.3832 14.5477 13.4637 14.5455 13.4724 14.6382C13.4833 14.7513 13.3941 14.7422 13.3202 14.7558C13.1353 14.7897 12.9439 14.7784 12.7721 14.8802C12.7221 14.9096 12.6547 14.9186 12.6264 14.844C12.6003 14.7739 12.6351 14.7174 12.6982 14.6834C12.8917 14.5771 13.1049 14.5771 13.3093 14.5432Z" fill="#10190C"/>
<path d="M20.7909 14.365C20.7863 14.3581 20.784 14.3489 20.7793 14.3419C20.7863 14.3465 20.7933 14.3488 20.8026 14.3535C20.8026 14.3558 20.7909 14.365 20.7909 14.365Z" fill="#4A833D"/>
<path d="M12.0413 8.02527C12.0413 8.02527 5.28001 23.9605 10.2471 23.9605C15.2143 23.9605 18.6221 23.8949 18.6221 23.8949L11.9347 19.8037L12.0413 8.02527Z" fill="#4A833D"/>
<path d="M18.7372 24.1233C18.7351 24.1233 18.7329 24.1233 18.7307 24.1233L9.96212 24.112C9.94908 24.112 9.44453 24.1369 8.98349 23.6688C8.46807 23.1463 8.2245 22.2417 8.26147 20.9842C8.35063 17.9469 10.2405 12.3359 10.321 12.0984C10.3732 11.9537 11.6519 8.73089 12.0434 8.02527L12.2456 8.10216C11.8672 8.78517 10.6406 12.1821 10.6276 12.216C10.608 12.2703 8.67685 18.0102 8.58986 20.9956C8.55724 22.1399 8.77254 22.979 9.21401 23.4268C9.57284 23.7909 9.94908 23.7728 9.9556 23.7728L18.7394 23.7841C18.7503 23.7796 18.9612 23.714 18.9786 23.429L19.1874 23.567C19.0743 24.0939 18.7938 24.1233 18.7372 24.1233Z" fill="black"/>
<path d="M25.1877 24.1686C25.0072 24.1686 24.7941 24.1392 24.5592 24.1052C24.2896 24.0668 23.9829 24.0238 23.6915 24.0238L19.292 23.956L19.3203 23.6846H23.6915C24.0047 23.6846 24.3222 23.7298 24.6027 23.7683C24.9463 23.8157 25.3704 23.8768 25.4357 23.766L25.7162 23.9401C25.614 24.1165 25.4291 24.1686 25.1877 24.1686Z" fill="black"/>
</g>
<defs>
<clipPath id="clip0_23513_16942">
<rect width="17.4545" height="17.6201" fill="white" transform="translate(8.25781 6.54871)"/>
</clipPath>
</defs>
</svg>
