<svg width="375" height="757" viewBox="0 0 375 757" fill="none" xmlns="http://www.w3.org/2000/svg">
<g clip-path="url(#clip0_25614_76948)">
<rect width="375" height="757" fill="#040107"/>
<g filter="url(#filter0_f_25614_76948)">
<circle cx="26" cy="307" r="110" fill="#2C8269"/>
</g>
<g filter="url(#filter1_f_25614_76948)">
<circle cx="365" cy="565" r="110" fill="#2C8269"/>
</g>
<g filter="url(#filter2_d_25614_76948)">
<path d="M296.5 496C296.5 501.456 293.4 506.722 287.64 511.577C281.884 516.429 273.524 520.822 263.149 524.52C242.405 531.916 213.715 536.5 182 536.5C150.285 536.5 121.595 531.916 100.851 524.52C90.4764 520.822 82.1164 516.429 76.3595 511.577C70.6003 506.722 67.5 501.456 67.5 496C67.5 490.544 70.6003 485.278 76.3595 480.423C82.1164 475.571 90.4764 471.178 100.851 467.48C121.595 460.084 150.285 455.5 182 455.5C213.715 455.5 242.405 460.084 263.149 467.48C273.524 471.178 281.884 475.571 287.64 480.423C293.4 485.278 296.5 490.544 296.5 496Z" stroke="white" stroke-opacity="0.3" shape-rendering="crispEdges"/>
</g>
<g filter="url(#filter3_d_25614_76948)">
<path d="M381.5 487C381.5 495.473 376.198 503.631 366.411 511.125C356.632 518.615 342.449 525.381 324.878 531.072C289.743 542.453 241.172 549.5 187.5 549.5C133.828 549.5 85.2573 542.453 50.1218 531.072C32.5513 525.381 18.3684 518.615 8.58877 511.125C-1.19823 503.631 -6.5 495.473 -6.5 487C-6.5 478.527 -1.19823 470.369 8.58877 462.875C18.3684 455.385 32.5513 448.619 50.1218 442.928C85.2573 431.547 133.828 424.5 187.5 424.5C241.172 424.5 289.743 431.547 324.878 442.928C342.449 448.619 356.632 455.385 366.411 462.875C376.198 470.369 381.5 478.527 381.5 487Z" stroke="white" stroke-opacity="0.45" shape-rendering="crispEdges"/>
</g>
<path d="M250.91 499.43C250.91 502.903 249.059 506.269 245.584 509.389C242.109 512.509 237.053 515.341 230.762 517.73C218.184 522.506 200.774 525.471 181.519 525.471C162.264 525.471 144.854 522.506 132.276 517.73C125.985 515.341 120.929 512.509 117.454 509.389C113.979 506.269 112.128 502.903 112.128 499.43C112.128 495.957 113.979 492.591 117.454 489.471C120.929 486.351 125.985 483.519 132.276 481.13C144.854 476.354 162.264 473.389 181.519 473.389C200.774 473.389 218.184 476.354 230.762 481.13C237.053 483.519 242.109 486.351 245.584 489.471C249.059 492.591 250.91 495.957 250.91 499.43Z" stroke="white" stroke-opacity="0.2"/>
<path d="M301.521 272.521C305.313 271.396 308.355 268.551 309.73 264.841L310.041 264L310.337 264.806C311.702 268.535 314.753 271.397 318.562 272.521L317.721 272.962C314.341 274.735 311.64 277.575 310.041 281.042C308.422 277.573 305.713 274.73 302.326 272.945L301.521 272.521Z" fill="#D9D9D9"/>
<path d="M326 287.76C327.674 287.264 329.016 286.008 329.623 284.371L329.76 284L329.891 284.356C330.493 286.001 331.84 287.264 333.521 287.76L333.15 287.955C331.658 288.737 330.466 289.991 329.76 291.521C329.046 289.99 327.85 288.735 326.356 287.948L326 287.76Z" fill="#D9D9D9"/>
<path d="M283 302.76C284.674 302.264 286.016 301.008 286.623 299.371L286.76 299L286.891 299.356C287.493 301.001 288.84 302.264 290.521 302.76L290.15 302.955C288.658 303.737 287.466 304.991 286.76 306.521C286.046 304.99 284.85 303.735 283.356 302.948L283 302.76Z" fill="#D9D9D9"/>
<path d="M58 336.521C61.7928 335.396 64.8343 332.551 66.2091 328.841L66.5208 328L66.8161 328.806C68.1817 332.535 71.2329 335.397 75.0416 336.521L74.2008 336.962C70.82 338.735 68.12 341.575 66.5208 345.042C64.9016 341.573 62.1921 338.73 58.8058 336.945L58 336.521Z" fill="#D9D9D9"/>
<path d="M82 272.76C83.6738 272.264 85.0161 271.008 85.6228 269.371L85.7604 269L85.8907 269.356C86.4934 271.001 87.8399 272.264 89.5208 272.76L89.1498 272.955C87.6577 273.737 86.4661 274.991 85.7604 276.521C85.0458 274.99 83.8501 273.735 82.3556 272.948L82 272.76Z" fill="#D9D9D9"/>
<path d="M36 288.76C37.6738 288.264 39.0161 287.008 39.6228 285.371L39.7604 285L39.8907 285.356C40.4934 287.001 41.8399 288.264 43.5208 288.76L43.1498 288.955C41.6577 289.737 40.4661 290.991 39.7604 292.521C39.0458 290.99 37.8501 289.735 36.3556 288.948L36 288.76Z" fill="#D9D9D9"/>
<path d="M150 264.76C151.674 264.264 153.016 263.008 153.623 261.371L153.76 261L153.891 261.356C154.493 263.001 155.84 264.264 157.521 264.76L157.15 264.955C155.658 265.737 154.466 266.991 153.76 268.521C153.046 266.99 151.85 265.735 150.356 264.948L150 264.76Z" fill="#D9D9D9"/>
<path opacity="0.2" d="M434 214L281.783 526L82.934 526L-86 214L434 214Z" fill="url(#paint0_linear_25614_76948)"/>
</g>
<defs>
<filter id="filter0_f_25614_76948" x="-304" y="-23" width="660" height="660" filterUnits="userSpaceOnUse" color-interpolation-filters="sRGB">
<feFlood flood-opacity="0" result="BackgroundImageFix"/>
<feBlend mode="normal" in="SourceGraphic" in2="BackgroundImageFix" result="shape"/>
<feGaussianBlur stdDeviation="110" result="effect1_foregroundBlur_25614_76948"/>
</filter>
<filter id="filter1_f_25614_76948" x="35" y="235" width="660" height="660" filterUnits="userSpaceOnUse" color-interpolation-filters="sRGB">
<feFlood flood-opacity="0" result="BackgroundImageFix"/>
<feBlend mode="normal" in="SourceGraphic" in2="BackgroundImageFix" result="shape"/>
<feGaussianBlur stdDeviation="110" result="effect1_foregroundBlur_25614_76948"/>
</filter>
<filter id="filter2_d_25614_76948" x="62" y="452" width="240" height="92" filterUnits="userSpaceOnUse" color-interpolation-filters="sRGB">
<feFlood flood-opacity="0" result="BackgroundImageFix"/>
<feColorMatrix in="SourceAlpha" type="matrix" values="0 0 0 0 0 0 0 0 0 0 0 0 0 0 0 0 0 0 127 0" result="hardAlpha"/>
<feOffset dy="2"/>
<feGaussianBlur stdDeviation="2.5"/>
<feComposite in2="hardAlpha" operator="out"/>
<feColorMatrix type="matrix" values="0 0 0 0 0.270588 0 0 0 0 0.713726 0 0 0 0 0.619608 0 0 0 0.4 0"/>
<feBlend mode="normal" in2="BackgroundImageFix" result="effect1_dropShadow_25614_76948"/>
<feBlend mode="normal" in="SourceGraphic" in2="effect1_dropShadow_25614_76948" result="shape"/>
</filter>
<filter id="filter3_d_25614_76948" x="-12" y="422" width="399" height="136" filterUnits="userSpaceOnUse" color-interpolation-filters="sRGB">
<feFlood flood-opacity="0" result="BackgroundImageFix"/>
<feColorMatrix in="SourceAlpha" type="matrix" values="0 0 0 0 0 0 0 0 0 0 0 0 0 0 0 0 0 0 127 0" result="hardAlpha"/>
<feOffset dy="3"/>
<feGaussianBlur stdDeviation="2.5"/>
<feComposite in2="hardAlpha" operator="out"/>
<feColorMatrix type="matrix" values="0 0 0 0 0.270588 0 0 0 0 0.713726 0 0 0 0 0.619608 0 0 0 0.5 0"/>
<feBlend mode="normal" in2="BackgroundImageFix" result="effect1_dropShadow_25614_76948"/>
<feBlend mode="normal" in="SourceGraphic" in2="effect1_dropShadow_25614_76948" result="shape"/>
</filter>
<linearGradient id="paint0_linear_25614_76948" x1="174" y1="526" x2="174" y2="214" gradientUnits="userSpaceOnUse">
<stop stop-color="#8DD2C2" stop-opacity="0"/>
<stop offset="0.42416" stop-color="#8DD2C2"/>
<stop offset="1" stop-color="#8DD2C2" stop-opacity="0"/>
</linearGradient>
<clipPath id="clip0_25614_76948">
<rect width="375" height="757" fill="white"/>
</clipPath>
</defs>
</svg>
