<svg width="25" height="24" viewBox="0 0 25 24" fill="none" xmlns="http://www.w3.org/2000/svg">
<path d="M2.4644 11.874L7.2944 13.5143L18.7626 6.50328C18.9291 6.40203 19.0994 6.62778 18.9562 6.75978L10.2741 14.751L9.95165 19.2248C9.94638 19.2997 9.96402 19.3745 10.0022 19.4392C10.0404 19.5039 10.0974 19.5554 10.1656 19.587C10.2337 19.6185 10.3099 19.6286 10.3839 19.6159C10.458 19.6032 10.5264 19.5683 10.5801 19.5158L13.2532 16.887L18.1402 20.586C18.6667 20.985 19.4294 20.7038 19.5711 20.0588L22.9739 4.60878C23.1681 3.72753 22.3042 2.98353 21.4619 3.30603L2.4404 10.59C1.8434 10.8188 1.8599 11.6685 2.4644 11.874Z" fill="#F4F4F5"/>
</svg>
